%TF.GenerationSoftware,KiCad,Pcbnew,6.0.11-2627ca5db0~126~ubuntu22.04.1*%
%TF.CreationDate,2024-02-02T15:47:47+01:00*%
%TF.ProjectId,CrystalSequencer,43727973-7461-46c5-9365-7175656e6365,rev?*%
%TF.SameCoordinates,Original*%
%TF.FileFunction,Legend,Bot*%
%TF.FilePolarity,Positive*%
%FSLAX46Y46*%
G04 Gerber Fmt 4.6, Leading zero omitted, Abs format (unit mm)*
G04 Created by KiCad (PCBNEW 6.0.11-2627ca5db0~126~ubuntu22.04.1) date 2024-02-02 15:47:47*
%MOMM*%
%LPD*%
G01*
G04 APERTURE LIST*
%ADD10C,0.150000*%
%ADD11C,0.250000*%
%ADD12C,0.010000*%
G04 APERTURE END LIST*
D10*
X125537619Y-92099523D02*
X126537619Y-92099523D01*
X125823333Y-91766190D01*
X126537619Y-91432857D01*
X125537619Y-91432857D01*
X125537619Y-90528095D02*
X126061428Y-90528095D01*
X126156666Y-90575714D01*
X126204285Y-90670952D01*
X126204285Y-90861428D01*
X126156666Y-90956666D01*
X125585238Y-90528095D02*
X125537619Y-90623333D01*
X125537619Y-90861428D01*
X125585238Y-90956666D01*
X125680476Y-91004285D01*
X125775714Y-91004285D01*
X125870952Y-90956666D01*
X125918571Y-90861428D01*
X125918571Y-90623333D01*
X125966190Y-90528095D01*
X125537619Y-90051904D02*
X126537619Y-90051904D01*
X125918571Y-89956666D02*
X125537619Y-89670952D01*
X126204285Y-89670952D02*
X125823333Y-90051904D01*
X125585238Y-88861428D02*
X125537619Y-88956666D01*
X125537619Y-89147142D01*
X125585238Y-89242380D01*
X125680476Y-89290000D01*
X126061428Y-89290000D01*
X126156666Y-89242380D01*
X126204285Y-89147142D01*
X126204285Y-88956666D01*
X126156666Y-88861428D01*
X126061428Y-88813809D01*
X125966190Y-88813809D01*
X125870952Y-89290000D01*
X125537619Y-87623333D02*
X126537619Y-87623333D01*
X125823333Y-87290000D01*
X126537619Y-86956666D01*
X125537619Y-86956666D01*
X125537619Y-86337619D02*
X125585238Y-86432857D01*
X125632857Y-86480476D01*
X125728095Y-86528095D01*
X126013809Y-86528095D01*
X126109047Y-86480476D01*
X126156666Y-86432857D01*
X126204285Y-86337619D01*
X126204285Y-86194761D01*
X126156666Y-86099523D01*
X126109047Y-86051904D01*
X126013809Y-86004285D01*
X125728095Y-86004285D01*
X125632857Y-86051904D01*
X125585238Y-86099523D01*
X125537619Y-86194761D01*
X125537619Y-86337619D01*
X125537619Y-85575714D02*
X126204285Y-85575714D01*
X126013809Y-85575714D02*
X126109047Y-85528095D01*
X126156666Y-85480476D01*
X126204285Y-85385238D01*
X126204285Y-85290000D01*
X125585238Y-84575714D02*
X125537619Y-84670952D01*
X125537619Y-84861428D01*
X125585238Y-84956666D01*
X125680476Y-85004285D01*
X126061428Y-85004285D01*
X126156666Y-84956666D01*
X126204285Y-84861428D01*
X126204285Y-84670952D01*
X126156666Y-84575714D01*
X126061428Y-84528095D01*
X125966190Y-84528095D01*
X125870952Y-85004285D01*
X125537619Y-82861428D02*
X125537619Y-83337619D01*
X126537619Y-83337619D01*
X125537619Y-82385238D02*
X125585238Y-82480476D01*
X125632857Y-82528095D01*
X125728095Y-82575714D01*
X126013809Y-82575714D01*
X126109047Y-82528095D01*
X126156666Y-82480476D01*
X126204285Y-82385238D01*
X126204285Y-82242380D01*
X126156666Y-82147142D01*
X126109047Y-82099523D01*
X126013809Y-82051904D01*
X125728095Y-82051904D01*
X125632857Y-82099523D01*
X125585238Y-82147142D01*
X125537619Y-82242380D01*
X125537619Y-82385238D01*
X126204285Y-81718571D02*
X125537619Y-81480476D01*
X126204285Y-81242380D01*
X125585238Y-80480476D02*
X125537619Y-80575714D01*
X125537619Y-80766190D01*
X125585238Y-80861428D01*
X125680476Y-80909047D01*
X126061428Y-80909047D01*
X126156666Y-80861428D01*
X126204285Y-80766190D01*
X126204285Y-80575714D01*
X126156666Y-80480476D01*
X126061428Y-80432857D01*
X125966190Y-80432857D01*
X125870952Y-80909047D01*
X28080000Y-63350000D02*
X20100000Y-63350000D01*
X20100000Y-63350000D02*
X20100000Y-55370000D01*
X20100000Y-55370000D02*
X28080000Y-55370000D01*
X28080000Y-55370000D02*
X28080000Y-63350000D01*
D11*
X21461428Y-53680000D02*
X20247142Y-53680000D01*
X20104285Y-53751428D01*
X20032857Y-53822857D01*
X19961428Y-53965714D01*
X19961428Y-54180000D01*
X20032857Y-54322857D01*
X20532857Y-53680000D02*
X20461428Y-53822857D01*
X20461428Y-54108571D01*
X20532857Y-54251428D01*
X20604285Y-54322857D01*
X20747142Y-54394285D01*
X21175714Y-54394285D01*
X21318571Y-54322857D01*
X21390000Y-54251428D01*
X21461428Y-54108571D01*
X21461428Y-53822857D01*
X21390000Y-53680000D01*
X20461428Y-52322857D02*
X21247142Y-52322857D01*
X21390000Y-52394285D01*
X21461428Y-52537142D01*
X21461428Y-52822857D01*
X21390000Y-52965714D01*
X20532857Y-52322857D02*
X20461428Y-52465714D01*
X20461428Y-52822857D01*
X20532857Y-52965714D01*
X20675714Y-53037142D01*
X20818571Y-53037142D01*
X20961428Y-52965714D01*
X21032857Y-52822857D01*
X21032857Y-52465714D01*
X21104285Y-52322857D01*
X21461428Y-50965714D02*
X20461428Y-50965714D01*
X21461428Y-51608571D02*
X20675714Y-51608571D01*
X20532857Y-51537142D01*
X20461428Y-51394285D01*
X20461428Y-51180000D01*
X20532857Y-51037142D01*
X20604285Y-50965714D01*
X20461428Y-49608571D02*
X21961428Y-49608571D01*
X20532857Y-49608571D02*
X20461428Y-49751428D01*
X20461428Y-50037142D01*
X20532857Y-50180000D01*
X20604285Y-50251428D01*
X20747142Y-50322857D01*
X21175714Y-50322857D01*
X21318571Y-50251428D01*
X21390000Y-50180000D01*
X21461428Y-50037142D01*
X21461428Y-49751428D01*
X21390000Y-49608571D01*
X20461428Y-48894285D02*
X21461428Y-48894285D01*
X21961428Y-48894285D02*
X21890000Y-48965714D01*
X21818571Y-48894285D01*
X21890000Y-48822857D01*
X21961428Y-48894285D01*
X21818571Y-48894285D01*
X20604285Y-48180000D02*
X20532857Y-48108571D01*
X20461428Y-48179999D01*
X20532857Y-48251428D01*
X20604285Y-48180000D01*
X20461428Y-48179999D01*
X20532857Y-46822857D02*
X20461428Y-46965714D01*
X20461428Y-47251428D01*
X20532857Y-47394285D01*
X20604285Y-47465714D01*
X20747142Y-47537142D01*
X21175714Y-47537142D01*
X21318571Y-47465714D01*
X21390000Y-47394285D01*
X21461428Y-47251428D01*
X21461428Y-46965714D01*
X21390000Y-46822857D01*
X20461428Y-46180000D02*
X21961428Y-46180000D01*
X20461428Y-45537142D02*
X21247142Y-45537142D01*
X21390000Y-45608571D01*
X21461428Y-45751428D01*
X21461428Y-45965714D01*
X21390000Y-46108571D01*
X21318571Y-46180000D01*
%TO.C,G\u002A\u002A\u002A*%
G36*
X125813939Y-79314477D02*
G01*
X125468881Y-78925678D01*
X125424231Y-78870233D01*
X125238284Y-78635219D01*
X125107645Y-78463385D01*
X125067378Y-78402459D01*
X125479537Y-78402459D01*
X125495411Y-78448197D01*
X125580177Y-78606131D01*
X125714186Y-78825458D01*
X125885164Y-79048330D01*
X126126025Y-79241907D01*
X126355200Y-79307318D01*
X126547192Y-79239096D01*
X126676504Y-79031776D01*
X126700221Y-78872419D01*
X126606325Y-78641793D01*
X126530699Y-78538245D01*
X126518710Y-78435936D01*
X126627797Y-78310644D01*
X126722866Y-78181678D01*
X126747751Y-77932989D01*
X126681314Y-77755743D01*
X126518002Y-77629868D01*
X126293828Y-77632254D01*
X126034781Y-77760776D01*
X125766848Y-78013304D01*
X125661159Y-78142473D01*
X125531543Y-78313847D01*
X125479537Y-78402459D01*
X125067378Y-78402459D01*
X125058268Y-78388675D01*
X125067766Y-78363181D01*
X125168330Y-78237336D01*
X125349493Y-78051357D01*
X125574781Y-77838928D01*
X125807723Y-77633731D01*
X126011846Y-77469453D01*
X126150678Y-77379777D01*
X126359856Y-77311447D01*
X126664292Y-77311360D01*
X126887192Y-77441222D01*
X127005580Y-77683609D01*
X126996483Y-78021102D01*
X126981514Y-78093412D01*
X126936600Y-78335313D01*
X126914467Y-78495503D01*
X126913394Y-78528131D01*
X126918447Y-78722413D01*
X126934531Y-78976524D01*
X126940870Y-79160230D01*
X126898728Y-79348600D01*
X126774251Y-79496409D01*
X126598895Y-79613694D01*
X126363821Y-79651871D01*
X126333603Y-79640385D01*
X126107211Y-79554337D01*
X125813939Y-79314477D01*
G37*
G36*
X125783939Y-94844477D02*
G01*
X125438881Y-94455678D01*
X125394231Y-94400233D01*
X125208284Y-94165219D01*
X125077645Y-93993385D01*
X125037378Y-93932459D01*
X125449537Y-93932459D01*
X125465411Y-93978197D01*
X125550177Y-94136131D01*
X125684186Y-94355458D01*
X125855164Y-94578330D01*
X126096025Y-94771907D01*
X126325200Y-94837318D01*
X126517192Y-94769096D01*
X126646504Y-94561776D01*
X126670221Y-94402419D01*
X126576325Y-94171793D01*
X126500699Y-94068245D01*
X126488710Y-93965936D01*
X126597797Y-93840644D01*
X126692866Y-93711678D01*
X126717751Y-93462989D01*
X126651314Y-93285743D01*
X126488002Y-93159868D01*
X126263828Y-93162254D01*
X126004781Y-93290776D01*
X125736848Y-93543304D01*
X125631159Y-93672473D01*
X125501543Y-93843847D01*
X125449537Y-93932459D01*
X125037378Y-93932459D01*
X125028268Y-93918675D01*
X125037766Y-93893181D01*
X125138330Y-93767336D01*
X125319493Y-93581357D01*
X125544781Y-93368928D01*
X125777723Y-93163731D01*
X125981846Y-92999453D01*
X126120678Y-92909777D01*
X126329856Y-92841447D01*
X126634292Y-92841360D01*
X126857192Y-92971222D01*
X126975580Y-93213609D01*
X126966483Y-93551102D01*
X126951514Y-93623412D01*
X126906600Y-93865313D01*
X126884467Y-94025503D01*
X126883394Y-94058131D01*
X126888447Y-94252413D01*
X126904531Y-94506524D01*
X126910870Y-94690230D01*
X126868728Y-94878600D01*
X126744251Y-95026409D01*
X126568895Y-95143694D01*
X126333821Y-95181871D01*
X126303603Y-95170385D01*
X126077211Y-95084337D01*
X125783939Y-94844477D01*
G37*
G36*
X24875320Y-65090334D02*
G01*
X25632749Y-65342939D01*
X26344620Y-65739755D01*
X26990255Y-66280619D01*
X27024282Y-66315460D01*
X27327979Y-66663258D01*
X27592900Y-67028566D01*
X27798639Y-67377239D01*
X27924788Y-67675132D01*
X27950943Y-67888101D01*
X27882860Y-68031898D01*
X27766092Y-68024458D01*
X27609313Y-67866753D01*
X27420461Y-67563638D01*
X27309353Y-67368527D01*
X26813918Y-66692579D01*
X26222486Y-66155156D01*
X25537617Y-65758245D01*
X24761876Y-65503830D01*
X24458360Y-65448282D01*
X23669977Y-65413772D01*
X22910304Y-65532199D01*
X22198639Y-65792786D01*
X21554283Y-66184755D01*
X20996533Y-66697330D01*
X20544689Y-67319734D01*
X20218049Y-68041190D01*
X20149453Y-68266199D01*
X20014818Y-69054826D01*
X20039040Y-69828298D01*
X20214143Y-70567997D01*
X20532150Y-71255307D01*
X20985087Y-71871609D01*
X21564977Y-72398285D01*
X22263845Y-72816717D01*
X22464941Y-72910857D01*
X22712474Y-73015510D01*
X22929873Y-73080313D01*
X23167004Y-73114863D01*
X23473732Y-73128758D01*
X23899921Y-73131593D01*
X24197057Y-73131096D01*
X24538152Y-73122855D01*
X24791997Y-73097233D01*
X25008019Y-73044805D01*
X25235650Y-72956145D01*
X25524318Y-72821826D01*
X26151888Y-72463925D01*
X26750510Y-71963075D01*
X27249025Y-71341799D01*
X27410547Y-71118954D01*
X27586796Y-70949417D01*
X27709712Y-70939486D01*
X27780085Y-71088784D01*
X27781555Y-71118214D01*
X27722985Y-71302035D01*
X27579805Y-71562573D01*
X27376925Y-71862255D01*
X27139253Y-72163510D01*
X26891698Y-72428768D01*
X26789124Y-72523797D01*
X26140037Y-72994300D01*
X25404466Y-73335117D01*
X24609684Y-73538799D01*
X23782967Y-73597897D01*
X22951589Y-73504959D01*
X22920425Y-73498322D01*
X22205435Y-73260101D01*
X21528594Y-72877727D01*
X20914606Y-72374911D01*
X20388172Y-71775362D01*
X19973994Y-71102790D01*
X19696774Y-70380904D01*
X19669494Y-70266339D01*
X19606821Y-69789164D01*
X19593268Y-69242277D01*
X19628346Y-68697191D01*
X19711562Y-68225422D01*
X19921851Y-67618668D01*
X20327920Y-66886579D01*
X20872194Y-66232316D01*
X21128542Y-65996194D01*
X21803587Y-65525293D01*
X22536466Y-65199420D01*
X23306499Y-65018411D01*
X24093010Y-64982104D01*
X24875320Y-65090334D01*
G37*
G36*
X21334935Y-67991709D02*
G01*
X21385650Y-68130152D01*
X21423061Y-68391709D01*
X21447215Y-68739890D01*
X21458162Y-69138207D01*
X21455952Y-69550170D01*
X21440632Y-69939290D01*
X21412252Y-70269078D01*
X21370862Y-70503044D01*
X21316510Y-70604700D01*
X21228700Y-70614702D01*
X21062510Y-70549342D01*
X21036130Y-70512005D01*
X20984447Y-70320486D01*
X20948711Y-70016745D01*
X20928866Y-69640507D01*
X20924856Y-69231496D01*
X20936625Y-68829437D01*
X20964116Y-68474054D01*
X21007272Y-68205072D01*
X21066038Y-68062216D01*
X21165967Y-67995362D01*
X21320038Y-67980560D01*
X21334935Y-67991709D01*
G37*
G36*
X22251665Y-67094538D02*
G01*
X22385646Y-67176407D01*
X22395183Y-67209380D01*
X22413824Y-67390971D01*
X22429486Y-67699183D01*
X22442005Y-68104783D01*
X22451216Y-68578540D01*
X22456954Y-69091220D01*
X22459053Y-69613590D01*
X22457349Y-70116417D01*
X22451676Y-70570470D01*
X22441870Y-70946514D01*
X22427765Y-71215317D01*
X22409196Y-71347646D01*
X22400967Y-71365858D01*
X22279143Y-71463818D01*
X22119656Y-71469104D01*
X22007907Y-71375737D01*
X21999462Y-71311812D01*
X21989670Y-71094354D01*
X21982479Y-70749623D01*
X21978207Y-70302109D01*
X21977169Y-69776302D01*
X21979685Y-69196689D01*
X21980032Y-69149757D01*
X21985478Y-68514080D01*
X21992276Y-68026480D01*
X22002080Y-67666999D01*
X22016546Y-67415680D01*
X22037326Y-67252564D01*
X22066078Y-67157694D01*
X22104454Y-67111111D01*
X22154109Y-67092858D01*
X22251665Y-67094538D01*
G37*
G36*
X29780092Y-70120168D02*
G01*
X29818124Y-70150268D01*
X29984520Y-70224127D01*
X30227316Y-70302090D01*
X30347116Y-70335905D01*
X30502766Y-70388985D01*
X30515705Y-70421122D01*
X30401172Y-70444830D01*
X30310278Y-70445910D01*
X30054989Y-70398769D01*
X29776576Y-70301563D01*
X29639584Y-70245009D01*
X29387192Y-70160258D01*
X29212792Y-70126904D01*
X29162565Y-70127996D01*
X29160709Y-70128821D01*
X29091796Y-70159463D01*
X29159348Y-70266065D01*
X29193751Y-70301186D01*
X29375963Y-70433698D01*
X29614215Y-70564167D01*
X29953588Y-70723108D01*
X29658640Y-70677166D01*
X29617828Y-70669558D01*
X29337120Y-70576975D01*
X29065974Y-70436824D01*
X28851443Y-70331021D01*
X28797912Y-70304621D01*
X28573678Y-70297358D01*
X28556588Y-70296804D01*
X28344921Y-70351186D01*
X28641255Y-70537133D01*
X28690666Y-70567255D01*
X28932231Y-70695365D01*
X29128088Y-70772838D01*
X29247570Y-70819329D01*
X29318588Y-70891258D01*
X29266417Y-70920429D01*
X29105805Y-70898548D01*
X28884770Y-70831886D01*
X28652666Y-70735712D01*
X28458851Y-70625295D01*
X28349348Y-70562398D01*
X28285655Y-70539908D01*
X28153614Y-70493284D01*
X28110103Y-70486481D01*
X27983834Y-70466740D01*
X27970603Y-70464671D01*
X27849131Y-70482322D01*
X27838011Y-70552001D01*
X27905601Y-70615934D01*
X28086430Y-70745235D01*
X28329842Y-70897889D01*
X28478132Y-70987277D01*
X28619775Y-71083689D01*
X28628387Y-71118336D01*
X28514255Y-71102638D01*
X28451635Y-71085770D01*
X28196729Y-70981351D01*
X27935240Y-70835242D01*
X27837437Y-70775883D01*
X27633763Y-70681753D01*
X27504451Y-70663144D01*
X27504182Y-70663247D01*
X27402261Y-70658539D01*
X27340188Y-70655672D01*
X27128452Y-70569577D01*
X26940115Y-70442795D01*
X26846319Y-70313157D01*
X26751232Y-70215048D01*
X26543350Y-70118876D01*
X27069636Y-70118876D01*
X27139775Y-70241944D01*
X27240875Y-70331512D01*
X27402261Y-70368944D01*
X27449259Y-70357465D01*
X27503540Y-70304265D01*
X27433402Y-70181197D01*
X27332301Y-70091629D01*
X27170916Y-70054197D01*
X27123917Y-70065676D01*
X27086533Y-70102316D01*
X27069636Y-70118876D01*
X26543350Y-70118876D01*
X26488654Y-70093572D01*
X26058552Y-69951451D01*
X26022382Y-69940637D01*
X27625255Y-69940637D01*
X27659130Y-70034231D01*
X27800530Y-70157771D01*
X27983834Y-70211570D01*
X28021189Y-70210491D01*
X28095046Y-70171144D01*
X28048588Y-70042237D01*
X27961413Y-69941182D01*
X27791609Y-69872904D01*
X27696181Y-69885239D01*
X27636845Y-69931584D01*
X27625255Y-69940637D01*
X26022382Y-69940637D01*
X25889833Y-69901008D01*
X25725910Y-69850876D01*
X28302194Y-69850876D01*
X28359033Y-69985793D01*
X28411490Y-70015099D01*
X28573678Y-70042237D01*
X28612993Y-70041097D01*
X28687619Y-70001713D01*
X28641255Y-69872904D01*
X28561355Y-69770795D01*
X28426609Y-69703570D01*
X28349330Y-69732409D01*
X28302194Y-69850876D01*
X25725910Y-69850876D01*
X25551331Y-69797485D01*
X25281623Y-69711950D01*
X25127588Y-69659122D01*
X25042857Y-69637841D01*
X25060514Y-69693200D01*
X25194263Y-69846622D01*
X25284941Y-69953346D01*
X25481711Y-70299964D01*
X25547695Y-70645263D01*
X25473184Y-70950809D01*
X25346035Y-71185237D01*
X25342645Y-70821199D01*
X25280922Y-70399700D01*
X25082250Y-70028367D01*
X24730847Y-69701901D01*
X24687593Y-69671039D01*
X24450660Y-69531527D01*
X24211407Y-69465941D01*
X23887218Y-69449570D01*
X23667928Y-69458266D01*
X23468726Y-69488596D01*
X23391921Y-69533175D01*
X23404138Y-69563799D01*
X23517050Y-69678525D01*
X23709893Y-69817506D01*
X23886433Y-69943268D01*
X24239315Y-70262703D01*
X24562275Y-70631827D01*
X24795445Y-70986185D01*
X24849208Y-71114589D01*
X24924397Y-71379381D01*
X24982827Y-71679422D01*
X25017298Y-71965127D01*
X25020607Y-72186913D01*
X24985555Y-72295195D01*
X24973324Y-72297995D01*
X24932428Y-72219302D01*
X24915921Y-72032255D01*
X24912311Y-71960278D01*
X24856037Y-71664107D01*
X24753229Y-71369147D01*
X24691558Y-71258766D01*
X24521815Y-71025094D01*
X24296682Y-70759615D01*
X24047982Y-70495459D01*
X23807537Y-70265756D01*
X23607172Y-70103639D01*
X23478708Y-70042237D01*
X23440996Y-70090958D01*
X23410312Y-70280406D01*
X23394278Y-70621065D01*
X23392190Y-71121737D01*
X23392542Y-71166514D01*
X23395357Y-71579552D01*
X23397016Y-71931341D01*
X23397390Y-72185856D01*
X23396355Y-72307070D01*
X23394537Y-72320135D01*
X23308626Y-72395104D01*
X23156531Y-72410576D01*
X23023992Y-72355419D01*
X23011802Y-72266525D01*
X23001277Y-72026577D01*
X22993130Y-71655303D01*
X22987581Y-71172052D01*
X22984849Y-70596173D01*
X22985154Y-69947012D01*
X22988715Y-69243919D01*
X23010921Y-66189904D01*
X23201421Y-66162849D01*
X23222221Y-66159986D01*
X23293317Y-66159165D01*
X23341130Y-66196131D01*
X23370279Y-66297194D01*
X23385382Y-66488663D01*
X23391056Y-66796846D01*
X23391921Y-67248054D01*
X23391458Y-67651506D01*
X23398978Y-67999401D01*
X23431144Y-68210457D01*
X23504721Y-68302408D01*
X23636474Y-68292985D01*
X23843168Y-68199923D01*
X24141570Y-68040952D01*
X24330388Y-67936258D01*
X24906254Y-67545639D01*
X25327051Y-67131781D01*
X25588071Y-66700127D01*
X25684606Y-66256123D01*
X25691290Y-66020570D01*
X25777843Y-66257948D01*
X25778409Y-66259506D01*
X25826189Y-66628673D01*
X25725405Y-67017798D01*
X25486124Y-67387887D01*
X25281136Y-67598505D01*
X24838810Y-67968365D01*
X24339688Y-68307371D01*
X23850882Y-68567128D01*
X23583080Y-68701732D01*
X23411886Y-68836919D01*
X23404285Y-68939057D01*
X23560000Y-69003592D01*
X23878755Y-69025969D01*
X24184456Y-69047733D01*
X24588483Y-69112745D01*
X24973662Y-69205926D01*
X25253415Y-69281787D01*
X25602696Y-69334033D01*
X25881342Y-69293849D01*
X26139110Y-69150525D01*
X26425755Y-68893351D01*
X26606030Y-68716533D01*
X26759867Y-68573217D01*
X26829966Y-68518237D01*
X26830003Y-68518237D01*
X26824654Y-68586730D01*
X26771106Y-68751070D01*
X26762335Y-68773113D01*
X26634652Y-68997472D01*
X26457020Y-69216820D01*
X26273399Y-69383428D01*
X26127748Y-69449570D01*
X26088898Y-69452029D01*
X26016741Y-69501407D01*
X26067072Y-69582147D01*
X26220389Y-69651698D01*
X26369259Y-69692641D01*
X26559056Y-69754601D01*
X26660709Y-69754867D01*
X26681908Y-69669706D01*
X26967370Y-69669706D01*
X27086533Y-69688612D01*
X27144923Y-69655053D01*
X28895255Y-69655053D01*
X28895306Y-69661138D01*
X28962889Y-69820423D01*
X29160709Y-69872904D01*
X29234571Y-69857860D01*
X29273094Y-69777293D01*
X29208234Y-69671797D01*
X29058731Y-69592840D01*
X28961168Y-69585640D01*
X28895255Y-69655053D01*
X27144923Y-69655053D01*
X27187371Y-69630656D01*
X27284025Y-69487670D01*
X27628072Y-69487670D01*
X27636845Y-69595174D01*
X27681683Y-69591629D01*
X27747707Y-69517304D01*
X29487921Y-69517304D01*
X29523626Y-69614942D01*
X29670191Y-69735877D01*
X29864688Y-69785420D01*
X29972192Y-69776647D01*
X29968647Y-69731809D01*
X29838375Y-69616087D01*
X29712281Y-69525179D01*
X30165255Y-69525179D01*
X30205829Y-69595019D01*
X30361767Y-69671832D01*
X30574346Y-69700878D01*
X30626332Y-69697922D01*
X30656966Y-69666108D01*
X30551239Y-69573878D01*
X30426513Y-69497398D01*
X30276073Y-69449570D01*
X30232731Y-69455628D01*
X30195628Y-69493872D01*
X30165255Y-69525179D01*
X29712281Y-69525179D01*
X29676100Y-69499094D01*
X29563208Y-69449570D01*
X29551491Y-69450396D01*
X29527276Y-69475883D01*
X29487921Y-69517304D01*
X27747707Y-69517304D01*
X27797405Y-69461357D01*
X27835649Y-69412905D01*
X27848802Y-69389744D01*
X28217636Y-69389744D01*
X28285655Y-69449570D01*
X28379248Y-69415696D01*
X28502789Y-69274295D01*
X28524146Y-69201528D01*
X28810588Y-69201528D01*
X28811946Y-69248452D01*
X28851443Y-69326219D01*
X28979921Y-69280237D01*
X28982442Y-69278048D01*
X30610356Y-69278048D01*
X30746379Y-69358726D01*
X30906654Y-69411198D01*
X31167974Y-69407154D01*
X31392921Y-69350339D01*
X31149539Y-69222390D01*
X30947818Y-69147273D01*
X30727944Y-69173962D01*
X30618661Y-69227364D01*
X30610356Y-69278048D01*
X28982442Y-69278048D01*
X29080907Y-69192559D01*
X29098192Y-69148989D01*
X29415725Y-69148989D01*
X29527276Y-69195570D01*
X29652696Y-69128751D01*
X29739558Y-69019924D01*
X30080588Y-69019924D01*
X30094241Y-69082963D01*
X30195628Y-69142020D01*
X30352619Y-69103376D01*
X30513213Y-68972708D01*
X30575127Y-68846734D01*
X30501273Y-68784452D01*
X30296198Y-68806015D01*
X30157595Y-68870209D01*
X30080588Y-69019924D01*
X29739558Y-69019924D01*
X29772945Y-68978094D01*
X29826588Y-68820137D01*
X29795688Y-68774371D01*
X29682284Y-68797840D01*
X29536302Y-68905285D01*
X29439141Y-69025436D01*
X29415725Y-69148989D01*
X29098192Y-69148989D01*
X29149255Y-69020279D01*
X29147897Y-68973356D01*
X29108400Y-68895589D01*
X28979921Y-68941570D01*
X28878936Y-69029249D01*
X28810588Y-69201528D01*
X28524146Y-69201528D01*
X28556588Y-69090992D01*
X28555509Y-69053637D01*
X28516162Y-68979779D01*
X28387255Y-69026237D01*
X28298618Y-69106661D01*
X28227171Y-69253714D01*
X28217636Y-69389744D01*
X27848802Y-69389744D01*
X27936998Y-69234442D01*
X27946939Y-69121415D01*
X27874037Y-69104033D01*
X27726855Y-69212504D01*
X27672562Y-69294775D01*
X27628072Y-69487670D01*
X27284025Y-69487670D01*
X27295471Y-69470737D01*
X27301975Y-69452385D01*
X27317180Y-69309463D01*
X27236891Y-69294657D01*
X27080969Y-69413285D01*
X26968966Y-69563602D01*
X26967370Y-69669706D01*
X26681908Y-69669706D01*
X26693921Y-69621449D01*
X26696981Y-69583755D01*
X26775570Y-69407932D01*
X26971187Y-69181527D01*
X27298315Y-68886938D01*
X27325555Y-68862838D01*
X27474688Y-68716319D01*
X27655242Y-68525363D01*
X27700548Y-68477377D01*
X27904189Y-68289807D01*
X28078576Y-68166036D01*
X28167889Y-68125332D01*
X28163622Y-68155580D01*
X28035611Y-68283145D01*
X27838350Y-68508125D01*
X27675582Y-68756779D01*
X27540196Y-69018587D01*
X27791288Y-68874480D01*
X27793464Y-68873225D01*
X28110103Y-68873225D01*
X28354512Y-68746317D01*
X28395329Y-68722657D01*
X28556654Y-68597158D01*
X28721966Y-68433949D01*
X28858744Y-68270714D01*
X28934472Y-68145137D01*
X28916628Y-68094904D01*
X28826363Y-68126689D01*
X28664775Y-68223426D01*
X28651606Y-68232963D01*
X28472165Y-68399770D01*
X28295694Y-68612586D01*
X28110103Y-68873225D01*
X27793464Y-68873225D01*
X27793969Y-68872934D01*
X27996581Y-68721601D01*
X28133471Y-68560167D01*
X28231943Y-68427062D01*
X28466121Y-68230420D01*
X28738516Y-68083576D01*
X28979921Y-68029885D01*
X29138505Y-68020477D01*
X29360921Y-67966319D01*
X29403481Y-67954894D01*
X29386617Y-68004148D01*
X29253180Y-68131132D01*
X29197403Y-68180407D01*
X29007440Y-68373664D01*
X28886080Y-68535381D01*
X28848740Y-68611003D01*
X28856488Y-68672113D01*
X28993821Y-68643220D01*
X29009684Y-68637923D01*
X29210120Y-68527821D01*
X29415695Y-68360042D01*
X29548522Y-68239813D01*
X29757776Y-68080673D01*
X29957235Y-67954982D01*
X30106520Y-67887386D01*
X30165255Y-67902529D01*
X30163861Y-67910820D01*
X30081738Y-68004578D01*
X29911865Y-68123409D01*
X29903739Y-68128264D01*
X29704365Y-68279065D01*
X29573416Y-68432024D01*
X29533400Y-68519008D01*
X29563449Y-68558038D01*
X29720972Y-68519478D01*
X29773528Y-68501880D01*
X30021994Y-68400262D01*
X30288990Y-68271451D01*
X30368471Y-68232446D01*
X30629766Y-68134636D01*
X30839324Y-68095993D01*
X30891303Y-68098038D01*
X30938671Y-68122767D01*
X30856332Y-68186034D01*
X30630921Y-68300982D01*
X30207588Y-68504881D01*
X30503921Y-68523867D01*
X30783459Y-68531989D01*
X31066663Y-68524923D01*
X31242906Y-68527689D01*
X31507034Y-68564133D01*
X31761165Y-68625384D01*
X31952419Y-68698035D01*
X32027921Y-68768676D01*
X32022126Y-68781492D01*
X31916522Y-68795246D01*
X31719850Y-68758192D01*
X31708103Y-68755041D01*
X31410361Y-68713603D01*
X31124031Y-68727111D01*
X30836283Y-68781093D01*
X31326269Y-69029593D01*
X31640974Y-69170938D01*
X31972743Y-69256245D01*
X32366588Y-69280461D01*
X32384661Y-69280557D01*
X32674904Y-69290857D01*
X32806733Y-69318323D01*
X32789921Y-69364904D01*
X32684415Y-69400486D01*
X32446148Y-69434586D01*
X32149937Y-69448274D01*
X32006836Y-69451958D01*
X31677891Y-69493210D01*
X31472604Y-69573878D01*
X31341404Y-69648861D01*
X31138921Y-69703452D01*
X31069073Y-69706547D01*
X31019250Y-69728629D01*
X31123630Y-69798307D01*
X31212209Y-69829124D01*
X31449034Y-69859558D01*
X31737579Y-69859232D01*
X31924690Y-69852957D01*
X32121183Y-69863187D01*
X32197370Y-69892457D01*
X32132218Y-69962970D01*
X31910732Y-70013099D01*
X31542523Y-70031501D01*
X31038169Y-70017037D01*
X30906654Y-70010942D01*
X30889355Y-70010140D01*
X30601801Y-70009558D01*
X30574346Y-70014741D01*
X30479782Y-70032591D01*
X30522264Y-70075834D01*
X30728211Y-70135879D01*
X31096588Y-70209320D01*
X31477588Y-70276320D01*
X31027522Y-70286279D01*
X30861275Y-70284031D01*
X30587762Y-70255533D01*
X30405891Y-70204418D01*
X30339348Y-70173463D01*
X30146474Y-70112984D01*
X29952727Y-70079063D01*
X29864688Y-70079034D01*
X29812477Y-70079017D01*
X29780092Y-70120168D01*
G37*
G36*
X20179474Y-55439475D02*
G01*
X28020525Y-55439475D01*
X28020525Y-63294428D01*
X20179474Y-63294428D01*
X20179474Y-63141500D01*
X20332403Y-63141500D01*
X27881499Y-63141500D01*
X27881499Y-55592403D01*
X20332403Y-55592403D01*
X20332403Y-63141500D01*
X20179474Y-63141500D01*
X20179474Y-55439475D01*
G37*
D12*
X20179474Y-55439475D02*
X28020525Y-55439475D01*
X28020525Y-63294428D01*
X20179474Y-63294428D01*
X20179474Y-63141500D01*
X20332403Y-63141500D01*
X27881499Y-63141500D01*
X27881499Y-55592403D01*
X20332403Y-55592403D01*
X20332403Y-63141500D01*
X20179474Y-63141500D01*
X20179474Y-55439475D01*
G36*
X21083142Y-61931976D02*
G01*
X20999726Y-61931976D01*
X20986217Y-61931968D01*
X20945802Y-61930928D01*
X20925049Y-61925816D01*
X20917403Y-61913355D01*
X20916311Y-61890269D01*
X20915033Y-61868255D01*
X20904144Y-61852006D01*
X20874603Y-61848561D01*
X20846737Y-61851210D01*
X20835166Y-61864779D01*
X20832895Y-61897666D01*
X20834457Y-61927878D01*
X20853440Y-61998840D01*
X20892101Y-62052680D01*
X20948070Y-62086838D01*
X21018979Y-62098755D01*
X21055160Y-62096332D01*
X21124057Y-62074964D01*
X21176660Y-62033815D01*
X21211637Y-61975662D01*
X21227656Y-61903277D01*
X21223384Y-61819436D01*
X21197490Y-61726913D01*
X21169228Y-61653925D01*
X21360416Y-61653925D01*
X21384064Y-61733865D01*
X21391611Y-61764193D01*
X21403007Y-61841701D01*
X21406694Y-61925025D01*
X21405916Y-61953756D01*
X21390238Y-62068391D01*
X21354062Y-62165092D01*
X21296687Y-62245285D01*
X21217413Y-62310396D01*
X21187994Y-62328583D01*
X21157079Y-62343647D01*
X21124798Y-62351876D01*
X21082341Y-62355313D01*
X21020898Y-62356005D01*
X20977996Y-62355723D01*
X20929357Y-62353331D01*
X20894168Y-62346891D01*
X20863732Y-62334511D01*
X20829356Y-62314297D01*
X20803075Y-62296272D01*
X20731079Y-62226039D01*
X20679268Y-62137353D01*
X20647054Y-62029294D01*
X20646069Y-62022502D01*
X20644311Y-61983234D01*
X20645006Y-61926878D01*
X20647735Y-61861688D01*
X20652082Y-61795915D01*
X20657627Y-61737812D01*
X20663953Y-61695633D01*
X20674124Y-61646974D01*
X20878633Y-61643126D01*
X21083142Y-61639279D01*
X21083142Y-61931976D01*
G37*
X21083142Y-61931976D02*
X20999726Y-61931976D01*
X20986217Y-61931968D01*
X20945802Y-61930928D01*
X20925049Y-61925816D01*
X20917403Y-61913355D01*
X20916311Y-61890269D01*
X20915033Y-61868255D01*
X20904144Y-61852006D01*
X20874603Y-61848561D01*
X20846737Y-61851210D01*
X20835166Y-61864779D01*
X20832895Y-61897666D01*
X20834457Y-61927878D01*
X20853440Y-61998840D01*
X20892101Y-62052680D01*
X20948070Y-62086838D01*
X21018979Y-62098755D01*
X21055160Y-62096332D01*
X21124057Y-62074964D01*
X21176660Y-62033815D01*
X21211637Y-61975662D01*
X21227656Y-61903277D01*
X21223384Y-61819436D01*
X21197490Y-61726913D01*
X21169228Y-61653925D01*
X21360416Y-61653925D01*
X21384064Y-61733865D01*
X21391611Y-61764193D01*
X21403007Y-61841701D01*
X21406694Y-61925025D01*
X21405916Y-61953756D01*
X21390238Y-62068391D01*
X21354062Y-62165092D01*
X21296687Y-62245285D01*
X21217413Y-62310396D01*
X21187994Y-62328583D01*
X21157079Y-62343647D01*
X21124798Y-62351876D01*
X21082341Y-62355313D01*
X21020898Y-62356005D01*
X20977996Y-62355723D01*
X20929357Y-62353331D01*
X20894168Y-62346891D01*
X20863732Y-62334511D01*
X20829356Y-62314297D01*
X20803075Y-62296272D01*
X20731079Y-62226039D01*
X20679268Y-62137353D01*
X20647054Y-62029294D01*
X20646069Y-62022502D01*
X20644311Y-61983234D01*
X20645006Y-61926878D01*
X20647735Y-61861688D01*
X20652082Y-61795915D01*
X20657627Y-61737812D01*
X20663953Y-61695633D01*
X20674124Y-61646974D01*
X20878633Y-61643126D01*
X21083142Y-61639279D01*
X21083142Y-61931976D01*
G36*
X20783184Y-61514590D02*
G01*
X20726327Y-61503000D01*
X20681778Y-61467436D01*
X20651969Y-61408971D01*
X20645235Y-61367389D01*
X20646587Y-61305957D01*
X20652501Y-61269274D01*
X20736106Y-61269274D01*
X20742124Y-61310486D01*
X20769922Y-61336508D01*
X20805760Y-61343043D01*
X20835746Y-61325956D01*
X20861056Y-61283853D01*
X20882950Y-61215381D01*
X20885576Y-61203673D01*
X20883991Y-61188454D01*
X20867509Y-61182353D01*
X20829683Y-61181237D01*
X20789102Y-61183697D01*
X20766327Y-61194029D01*
X20751711Y-61216648D01*
X20736106Y-61269274D01*
X20652501Y-61269274D01*
X20656666Y-61243441D01*
X20674124Y-61192997D01*
X20684101Y-61171474D01*
X20686546Y-61147239D01*
X20672910Y-61120465D01*
X20665974Y-61107175D01*
X20652173Y-61065505D01*
X20642949Y-61017190D01*
X20634629Y-60946943D01*
X20695530Y-60931188D01*
X20711499Y-60927039D01*
X20751535Y-60916479D01*
X20777505Y-60909406D01*
X20793827Y-60912111D01*
X20812262Y-60934563D01*
X20813210Y-60936672D01*
X20821879Y-60950103D01*
X20836666Y-60959148D01*
X20862990Y-60965110D01*
X20906268Y-60969296D01*
X20971921Y-60973010D01*
X20987438Y-60973849D01*
X21062172Y-60980213D01*
X21117056Y-60989142D01*
X21148130Y-61000029D01*
X21187496Y-61037891D01*
X21219628Y-61098924D01*
X21237586Y-61173254D01*
X21240627Y-61254819D01*
X21228009Y-61337551D01*
X21198990Y-61415388D01*
X21158820Y-61494045D01*
X21065552Y-61498152D01*
X20972285Y-61502259D01*
X21014131Y-61434943D01*
X21028515Y-61409519D01*
X21053593Y-61347847D01*
X21065946Y-61288476D01*
X21064553Y-61238269D01*
X21048398Y-61204090D01*
X21029685Y-61189879D01*
X21009639Y-61184884D01*
X21003201Y-61192672D01*
X20988892Y-61222431D01*
X20970708Y-61268871D01*
X20951068Y-61326153D01*
X20945567Y-61342995D01*
X20918927Y-61414970D01*
X20892851Y-61464208D01*
X20863857Y-61494617D01*
X20828463Y-61510108D01*
X20805760Y-61512356D01*
X20783184Y-61514590D01*
G37*
X20783184Y-61514590D02*
X20726327Y-61503000D01*
X20681778Y-61467436D01*
X20651969Y-61408971D01*
X20645235Y-61367389D01*
X20646587Y-61305957D01*
X20652501Y-61269274D01*
X20736106Y-61269274D01*
X20742124Y-61310486D01*
X20769922Y-61336508D01*
X20805760Y-61343043D01*
X20835746Y-61325956D01*
X20861056Y-61283853D01*
X20882950Y-61215381D01*
X20885576Y-61203673D01*
X20883991Y-61188454D01*
X20867509Y-61182353D01*
X20829683Y-61181237D01*
X20789102Y-61183697D01*
X20766327Y-61194029D01*
X20751711Y-61216648D01*
X20736106Y-61269274D01*
X20652501Y-61269274D01*
X20656666Y-61243441D01*
X20674124Y-61192997D01*
X20684101Y-61171474D01*
X20686546Y-61147239D01*
X20672910Y-61120465D01*
X20665974Y-61107175D01*
X20652173Y-61065505D01*
X20642949Y-61017190D01*
X20634629Y-60946943D01*
X20695530Y-60931188D01*
X20711499Y-60927039D01*
X20751535Y-60916479D01*
X20777505Y-60909406D01*
X20793827Y-60912111D01*
X20812262Y-60934563D01*
X20813210Y-60936672D01*
X20821879Y-60950103D01*
X20836666Y-60959148D01*
X20862990Y-60965110D01*
X20906268Y-60969296D01*
X20971921Y-60973010D01*
X20987438Y-60973849D01*
X21062172Y-60980213D01*
X21117056Y-60989142D01*
X21148130Y-61000029D01*
X21187496Y-61037891D01*
X21219628Y-61098924D01*
X21237586Y-61173254D01*
X21240627Y-61254819D01*
X21228009Y-61337551D01*
X21198990Y-61415388D01*
X21158820Y-61494045D01*
X21065552Y-61498152D01*
X20972285Y-61502259D01*
X21014131Y-61434943D01*
X21028515Y-61409519D01*
X21053593Y-61347847D01*
X21065946Y-61288476D01*
X21064553Y-61238269D01*
X21048398Y-61204090D01*
X21029685Y-61189879D01*
X21009639Y-61184884D01*
X21003201Y-61192672D01*
X20988892Y-61222431D01*
X20970708Y-61268871D01*
X20951068Y-61326153D01*
X20945567Y-61342995D01*
X20918927Y-61414970D01*
X20892851Y-61464208D01*
X20863857Y-61494617D01*
X20828463Y-61510108D01*
X20805760Y-61512356D01*
X20783184Y-61514590D01*
G36*
X20802749Y-60166780D02*
G01*
X20805090Y-60179074D01*
X20805149Y-60182849D01*
X20809074Y-60202905D01*
X20821856Y-60217239D01*
X20847281Y-60226775D01*
X20889133Y-60232441D01*
X20951199Y-60235161D01*
X21037263Y-60235862D01*
X21236070Y-60235862D01*
X21236070Y-60472206D01*
X21056125Y-60472206D01*
X20990815Y-60472397D01*
X20936730Y-60473543D01*
X20901086Y-60476416D01*
X20878858Y-60481787D01*
X20865017Y-60490426D01*
X20854537Y-60503105D01*
X20837489Y-60535414D01*
X20837327Y-60572726D01*
X20863794Y-60603492D01*
X20869458Y-60607003D01*
X20893609Y-60615709D01*
X20931111Y-60621289D01*
X20986767Y-60624259D01*
X21065381Y-60625134D01*
X21236070Y-60625134D01*
X21236070Y-60847576D01*
X21014100Y-60847576D01*
X20923780Y-60846820D01*
X20844392Y-60843432D01*
X20785049Y-60836185D01*
X20741662Y-60823865D01*
X20710137Y-60805257D01*
X20686383Y-60779146D01*
X20666309Y-60744319D01*
X20659804Y-60730205D01*
X20644536Y-60687005D01*
X20638575Y-60652940D01*
X20643181Y-60625646D01*
X20659554Y-60578467D01*
X20683470Y-60527479D01*
X20710372Y-60483437D01*
X20717540Y-60470877D01*
X20714571Y-60453389D01*
X20690883Y-60431133D01*
X20661246Y-60397303D01*
X20642273Y-60338891D01*
X20644989Y-60264980D01*
X20650648Y-60238635D01*
X20662470Y-60216915D01*
X20686368Y-60200850D01*
X20729575Y-60183469D01*
X20765813Y-60170564D01*
X20791680Y-60163826D01*
X20802749Y-60166780D01*
G37*
X20802749Y-60166780D02*
X20805090Y-60179074D01*
X20805149Y-60182849D01*
X20809074Y-60202905D01*
X20821856Y-60217239D01*
X20847281Y-60226775D01*
X20889133Y-60232441D01*
X20951199Y-60235161D01*
X21037263Y-60235862D01*
X21236070Y-60235862D01*
X21236070Y-60472206D01*
X21056125Y-60472206D01*
X20990815Y-60472397D01*
X20936730Y-60473543D01*
X20901086Y-60476416D01*
X20878858Y-60481787D01*
X20865017Y-60490426D01*
X20854537Y-60503105D01*
X20837489Y-60535414D01*
X20837327Y-60572726D01*
X20863794Y-60603492D01*
X20869458Y-60607003D01*
X20893609Y-60615709D01*
X20931111Y-60621289D01*
X20986767Y-60624259D01*
X21065381Y-60625134D01*
X21236070Y-60625134D01*
X21236070Y-60847576D01*
X21014100Y-60847576D01*
X20923780Y-60846820D01*
X20844392Y-60843432D01*
X20785049Y-60836185D01*
X20741662Y-60823865D01*
X20710137Y-60805257D01*
X20686383Y-60779146D01*
X20666309Y-60744319D01*
X20659804Y-60730205D01*
X20644536Y-60687005D01*
X20638575Y-60652940D01*
X20643181Y-60625646D01*
X20659554Y-60578467D01*
X20683470Y-60527479D01*
X20710372Y-60483437D01*
X20717540Y-60470877D01*
X20714571Y-60453389D01*
X20690883Y-60431133D01*
X20661246Y-60397303D01*
X20642273Y-60338891D01*
X20644989Y-60264980D01*
X20650648Y-60238635D01*
X20662470Y-60216915D01*
X20686368Y-60200850D01*
X20729575Y-60183469D01*
X20765813Y-60170564D01*
X20791680Y-60163826D01*
X20802749Y-60166780D01*
G36*
X20783184Y-58330901D02*
G01*
X20726327Y-58319311D01*
X20681778Y-58283747D01*
X20651969Y-58225282D01*
X20645235Y-58183700D01*
X20646587Y-58122268D01*
X20652501Y-58085585D01*
X20736106Y-58085585D01*
X20742124Y-58126797D01*
X20769922Y-58152819D01*
X20805760Y-58159354D01*
X20835746Y-58142267D01*
X20861056Y-58100164D01*
X20882950Y-58031691D01*
X20885576Y-58019984D01*
X20883991Y-58004765D01*
X20867509Y-57998664D01*
X20829683Y-57997548D01*
X20789102Y-58000008D01*
X20766327Y-58010340D01*
X20751711Y-58032959D01*
X20736106Y-58085585D01*
X20652501Y-58085585D01*
X20656666Y-58059752D01*
X20674124Y-58009308D01*
X20684101Y-57987785D01*
X20686546Y-57963550D01*
X20672910Y-57936776D01*
X20665974Y-57923486D01*
X20652173Y-57881816D01*
X20642949Y-57833500D01*
X20634629Y-57763254D01*
X20695530Y-57747499D01*
X20711499Y-57743349D01*
X20751535Y-57732790D01*
X20777505Y-57725717D01*
X20793827Y-57728422D01*
X20812262Y-57750874D01*
X20813210Y-57752983D01*
X20821879Y-57766414D01*
X20836666Y-57775459D01*
X20862990Y-57781421D01*
X20906268Y-57785607D01*
X20971921Y-57789321D01*
X20987438Y-57790160D01*
X21062172Y-57796524D01*
X21117056Y-57805453D01*
X21148130Y-57816340D01*
X21187496Y-57854202D01*
X21219628Y-57915234D01*
X21237586Y-57989565D01*
X21240627Y-58071129D01*
X21228009Y-58153862D01*
X21198990Y-58231699D01*
X21158820Y-58310356D01*
X21065552Y-58314463D01*
X20972285Y-58318570D01*
X21014131Y-58251254D01*
X21028515Y-58225830D01*
X21053593Y-58164158D01*
X21065946Y-58104787D01*
X21064553Y-58054580D01*
X21048398Y-58020401D01*
X21029685Y-58006190D01*
X21009639Y-58001195D01*
X21003201Y-58008983D01*
X20988892Y-58038742D01*
X20970708Y-58085182D01*
X20951068Y-58142464D01*
X20945567Y-58159306D01*
X20918927Y-58231281D01*
X20892851Y-58280519D01*
X20863857Y-58310928D01*
X20828463Y-58326419D01*
X20805760Y-58328667D01*
X20783184Y-58330901D01*
G37*
X20783184Y-58330901D02*
X20726327Y-58319311D01*
X20681778Y-58283747D01*
X20651969Y-58225282D01*
X20645235Y-58183700D01*
X20646587Y-58122268D01*
X20652501Y-58085585D01*
X20736106Y-58085585D01*
X20742124Y-58126797D01*
X20769922Y-58152819D01*
X20805760Y-58159354D01*
X20835746Y-58142267D01*
X20861056Y-58100164D01*
X20882950Y-58031691D01*
X20885576Y-58019984D01*
X20883991Y-58004765D01*
X20867509Y-57998664D01*
X20829683Y-57997548D01*
X20789102Y-58000008D01*
X20766327Y-58010340D01*
X20751711Y-58032959D01*
X20736106Y-58085585D01*
X20652501Y-58085585D01*
X20656666Y-58059752D01*
X20674124Y-58009308D01*
X20684101Y-57987785D01*
X20686546Y-57963550D01*
X20672910Y-57936776D01*
X20665974Y-57923486D01*
X20652173Y-57881816D01*
X20642949Y-57833500D01*
X20634629Y-57763254D01*
X20695530Y-57747499D01*
X20711499Y-57743349D01*
X20751535Y-57732790D01*
X20777505Y-57725717D01*
X20793827Y-57728422D01*
X20812262Y-57750874D01*
X20813210Y-57752983D01*
X20821879Y-57766414D01*
X20836666Y-57775459D01*
X20862990Y-57781421D01*
X20906268Y-57785607D01*
X20971921Y-57789321D01*
X20987438Y-57790160D01*
X21062172Y-57796524D01*
X21117056Y-57805453D01*
X21148130Y-57816340D01*
X21187496Y-57854202D01*
X21219628Y-57915234D01*
X21237586Y-57989565D01*
X21240627Y-58071129D01*
X21228009Y-58153862D01*
X21198990Y-58231699D01*
X21158820Y-58310356D01*
X21065552Y-58314463D01*
X20972285Y-58318570D01*
X21014131Y-58251254D01*
X21028515Y-58225830D01*
X21053593Y-58164158D01*
X21065946Y-58104787D01*
X21064553Y-58054580D01*
X21048398Y-58020401D01*
X21029685Y-58006190D01*
X21009639Y-58001195D01*
X21003201Y-58008983D01*
X20988892Y-58038742D01*
X20970708Y-58085182D01*
X20951068Y-58142464D01*
X20945567Y-58159306D01*
X20918927Y-58231281D01*
X20892851Y-58280519D01*
X20863857Y-58310928D01*
X20828463Y-58326419D01*
X20805760Y-58328667D01*
X20783184Y-58330901D01*
G36*
X20859415Y-56438433D02*
G01*
X20879982Y-56445683D01*
X20925889Y-56473612D01*
X20964949Y-56518802D01*
X21002159Y-56586437D01*
X21015594Y-56612789D01*
X21039565Y-56645680D01*
X21062494Y-56655950D01*
X21076181Y-56653968D01*
X21086865Y-56639912D01*
X21088695Y-56605940D01*
X21088685Y-56605581D01*
X21080915Y-56556891D01*
X21064366Y-56509962D01*
X21060846Y-56502840D01*
X21047031Y-56473300D01*
X21041434Y-56458484D01*
X21049441Y-56456506D01*
X21078456Y-56455773D01*
X21121372Y-56457145D01*
X21129248Y-56457558D01*
X21171213Y-56460916D01*
X21194839Y-56468594D01*
X21208391Y-56485596D01*
X21220134Y-56516924D01*
X21228160Y-56549037D01*
X21236205Y-56605054D01*
X21239559Y-56663114D01*
X21239239Y-56685060D01*
X21226932Y-56768907D01*
X21197238Y-56832223D01*
X21150659Y-56874242D01*
X21087696Y-56894202D01*
X21035537Y-56892396D01*
X20987714Y-56870267D01*
X20944010Y-56825097D01*
X20901303Y-56754545D01*
X20886616Y-56726841D01*
X20862909Y-56688484D01*
X20843895Y-56669628D01*
X20825944Y-56666008D01*
X20810363Y-56671153D01*
X20794637Y-56695708D01*
X20797245Y-56739925D01*
X20818240Y-56804173D01*
X20857674Y-56888818D01*
X20850651Y-56893634D01*
X20822524Y-56897687D01*
X20779593Y-56899245D01*
X20696169Y-56899245D01*
X20674655Y-56840159D01*
X20669820Y-56826425D01*
X20655810Y-56781375D01*
X20647375Y-56746317D01*
X20643711Y-56688990D01*
X20648294Y-56624207D01*
X20659662Y-56563716D01*
X20676334Y-56519141D01*
X20680818Y-56512121D01*
X20713846Y-56476884D01*
X20754700Y-56449093D01*
X20785506Y-56435738D01*
X20819778Y-56430340D01*
X20859415Y-56438433D01*
G37*
X20859415Y-56438433D02*
X20879982Y-56445683D01*
X20925889Y-56473612D01*
X20964949Y-56518802D01*
X21002159Y-56586437D01*
X21015594Y-56612789D01*
X21039565Y-56645680D01*
X21062494Y-56655950D01*
X21076181Y-56653968D01*
X21086865Y-56639912D01*
X21088695Y-56605940D01*
X21088685Y-56605581D01*
X21080915Y-56556891D01*
X21064366Y-56509962D01*
X21060846Y-56502840D01*
X21047031Y-56473300D01*
X21041434Y-56458484D01*
X21049441Y-56456506D01*
X21078456Y-56455773D01*
X21121372Y-56457145D01*
X21129248Y-56457558D01*
X21171213Y-56460916D01*
X21194839Y-56468594D01*
X21208391Y-56485596D01*
X21220134Y-56516924D01*
X21228160Y-56549037D01*
X21236205Y-56605054D01*
X21239559Y-56663114D01*
X21239239Y-56685060D01*
X21226932Y-56768907D01*
X21197238Y-56832223D01*
X21150659Y-56874242D01*
X21087696Y-56894202D01*
X21035537Y-56892396D01*
X20987714Y-56870267D01*
X20944010Y-56825097D01*
X20901303Y-56754545D01*
X20886616Y-56726841D01*
X20862909Y-56688484D01*
X20843895Y-56669628D01*
X20825944Y-56666008D01*
X20810363Y-56671153D01*
X20794637Y-56695708D01*
X20797245Y-56739925D01*
X20818240Y-56804173D01*
X20857674Y-56888818D01*
X20850651Y-56893634D01*
X20822524Y-56897687D01*
X20779593Y-56899245D01*
X20696169Y-56899245D01*
X20674655Y-56840159D01*
X20669820Y-56826425D01*
X20655810Y-56781375D01*
X20647375Y-56746317D01*
X20643711Y-56688990D01*
X20648294Y-56624207D01*
X20659662Y-56563716D01*
X20676334Y-56519141D01*
X20680818Y-56512121D01*
X20713846Y-56476884D01*
X20754700Y-56449093D01*
X20785506Y-56435738D01*
X20819778Y-56430340D01*
X20859415Y-56438433D01*
G36*
X20800618Y-60061228D02*
G01*
X20732972Y-60010816D01*
X20715914Y-59992090D01*
X20685678Y-59950166D01*
X20667855Y-59913164D01*
X20665780Y-59903424D01*
X20661245Y-59863542D01*
X20657440Y-59804758D01*
X20654714Y-59733308D01*
X20654632Y-59728418D01*
X20850873Y-59728418D01*
X20854496Y-59785597D01*
X20875959Y-59831666D01*
X20916372Y-59858431D01*
X20953061Y-59863957D01*
X20996148Y-59850459D01*
X21029160Y-59817760D01*
X21047705Y-59770698D01*
X21047392Y-59714111D01*
X21038115Y-59664662D01*
X20853749Y-59672808D01*
X20850873Y-59728418D01*
X20654632Y-59728418D01*
X20653416Y-59655430D01*
X20652162Y-59443416D01*
X21402901Y-59443416D01*
X21402901Y-59665857D01*
X21312269Y-59665857D01*
X21306170Y-59665845D01*
X21261336Y-59665779D01*
X21236619Y-59669895D01*
X21227922Y-59684036D01*
X21231146Y-59714046D01*
X21242192Y-59765766D01*
X21243936Y-59783282D01*
X21241937Y-59827520D01*
X21234302Y-59876987D01*
X21211998Y-59940615D01*
X21166559Y-60004737D01*
X21105529Y-60052944D01*
X21033665Y-60083966D01*
X20955721Y-60096534D01*
X20953061Y-60096293D01*
X20876453Y-60089378D01*
X20800618Y-60061228D01*
G37*
X20800618Y-60061228D02*
X20732972Y-60010816D01*
X20715914Y-59992090D01*
X20685678Y-59950166D01*
X20667855Y-59913164D01*
X20665780Y-59903424D01*
X20661245Y-59863542D01*
X20657440Y-59804758D01*
X20654714Y-59733308D01*
X20654632Y-59728418D01*
X20850873Y-59728418D01*
X20854496Y-59785597D01*
X20875959Y-59831666D01*
X20916372Y-59858431D01*
X20953061Y-59863957D01*
X20996148Y-59850459D01*
X21029160Y-59817760D01*
X21047705Y-59770698D01*
X21047392Y-59714111D01*
X21038115Y-59664662D01*
X20853749Y-59672808D01*
X20850873Y-59728418D01*
X20654632Y-59728418D01*
X20653416Y-59655430D01*
X20652162Y-59443416D01*
X21402901Y-59443416D01*
X21402901Y-59665857D01*
X21312269Y-59665857D01*
X21306170Y-59665845D01*
X21261336Y-59665779D01*
X21236619Y-59669895D01*
X21227922Y-59684036D01*
X21231146Y-59714046D01*
X21242192Y-59765766D01*
X21243936Y-59783282D01*
X21241937Y-59827520D01*
X21234302Y-59876987D01*
X21211998Y-59940615D01*
X21166559Y-60004737D01*
X21105529Y-60052944D01*
X21033665Y-60083966D01*
X20955721Y-60096534D01*
X20953061Y-60096293D01*
X20876453Y-60089378D01*
X20800618Y-60061228D01*
G36*
X21236070Y-59304390D02*
G01*
X20652162Y-59304390D01*
X20652162Y-59081949D01*
X21236070Y-59081949D01*
X21236070Y-59304390D01*
G37*
X21236070Y-59304390D02*
X20652162Y-59304390D01*
X20652162Y-59081949D01*
X21236070Y-59081949D01*
X21236070Y-59304390D01*
G36*
X20846798Y-58678774D02*
G01*
X21402901Y-58678774D01*
X21402901Y-58929021D01*
X20652162Y-58929021D01*
X20652162Y-58386820D01*
X20846798Y-58386820D01*
X20846798Y-58678774D01*
G37*
X20846798Y-58678774D02*
X21402901Y-58678774D01*
X21402901Y-58929021D01*
X20652162Y-58929021D01*
X20652162Y-58386820D01*
X20846798Y-58386820D01*
X20846798Y-58678774D01*
G36*
X20654466Y-57400893D02*
G01*
X20659113Y-57165705D01*
X20701007Y-57105463D01*
X20706849Y-57097396D01*
X20766303Y-57039754D01*
X20839481Y-57001561D01*
X20920428Y-56983469D01*
X21003190Y-56986130D01*
X21081813Y-57010194D01*
X21150342Y-57056312D01*
X21169070Y-57076266D01*
X21209780Y-57143136D01*
X21235046Y-57222471D01*
X21242648Y-57305227D01*
X21230367Y-57382359D01*
X21228513Y-57388340D01*
X21226941Y-57402604D01*
X21236577Y-57410156D01*
X21262951Y-57413124D01*
X21311597Y-57413640D01*
X21402901Y-57413640D01*
X21402901Y-57636081D01*
X20649818Y-57636081D01*
X20654214Y-57413640D01*
X20846798Y-57413640D01*
X20942628Y-57413640D01*
X20971817Y-57413341D01*
X21016630Y-57409307D01*
X21041810Y-57397488D01*
X21052874Y-57374041D01*
X21055336Y-57335125D01*
X21054132Y-57315172D01*
X21037922Y-57264194D01*
X21007050Y-57228115D01*
X20966962Y-57209932D01*
X20923104Y-57212637D01*
X20880922Y-57239226D01*
X20862677Y-57261338D01*
X20850136Y-57294569D01*
X20846798Y-57343495D01*
X20846798Y-57413640D01*
X20654214Y-57413640D01*
X20654466Y-57400893D01*
G37*
X20654466Y-57400893D02*
X20659113Y-57165705D01*
X20701007Y-57105463D01*
X20706849Y-57097396D01*
X20766303Y-57039754D01*
X20839481Y-57001561D01*
X20920428Y-56983469D01*
X21003190Y-56986130D01*
X21081813Y-57010194D01*
X21150342Y-57056312D01*
X21169070Y-57076266D01*
X21209780Y-57143136D01*
X21235046Y-57222471D01*
X21242648Y-57305227D01*
X21230367Y-57382359D01*
X21228513Y-57388340D01*
X21226941Y-57402604D01*
X21236577Y-57410156D01*
X21262951Y-57413124D01*
X21311597Y-57413640D01*
X21402901Y-57413640D01*
X21402901Y-57636081D01*
X20649818Y-57636081D01*
X20654214Y-57413640D01*
X20846798Y-57413640D01*
X20942628Y-57413640D01*
X20971817Y-57413341D01*
X21016630Y-57409307D01*
X21041810Y-57397488D01*
X21052874Y-57374041D01*
X21055336Y-57335125D01*
X21054132Y-57315172D01*
X21037922Y-57264194D01*
X21007050Y-57228115D01*
X20966962Y-57209932D01*
X20923104Y-57212637D01*
X20880922Y-57239226D01*
X20862677Y-57261338D01*
X20850136Y-57294569D01*
X20846798Y-57343495D01*
X20846798Y-57413640D01*
X20654214Y-57413640D01*
X20654466Y-57400893D01*
G36*
X21383334Y-59130042D02*
G01*
X21408336Y-59142462D01*
X21422561Y-59168419D01*
X21425083Y-59177230D01*
X21422444Y-59215240D01*
X21400691Y-59244155D01*
X21366679Y-59260310D01*
X21327263Y-59260038D01*
X21289299Y-59239674D01*
X21275626Y-59224297D01*
X21264988Y-59186844D01*
X21281808Y-59146154D01*
X21285270Y-59141887D01*
X21311084Y-59127448D01*
X21354543Y-59126119D01*
X21383334Y-59130042D01*
G37*
X21383334Y-59130042D02*
X21408336Y-59142462D01*
X21422561Y-59168419D01*
X21425083Y-59177230D01*
X21422444Y-59215240D01*
X21400691Y-59244155D01*
X21366679Y-59260310D01*
X21327263Y-59260038D01*
X21289299Y-59239674D01*
X21275626Y-59224297D01*
X21264988Y-59186844D01*
X21281808Y-59146154D01*
X21285270Y-59141887D01*
X21311084Y-59127448D01*
X21354543Y-59126119D01*
X21383334Y-59130042D01*
G36*
X24009633Y-60353085D02*
G01*
X23794143Y-60475686D01*
X23596031Y-60588400D01*
X23371949Y-60715889D01*
X23154625Y-60839533D01*
X23151251Y-60841452D01*
X22944960Y-60958821D01*
X22723645Y-61084736D01*
X22501204Y-61211292D01*
X22299145Y-61326251D01*
X22167747Y-61401008D01*
X22080651Y-61389779D01*
X22073802Y-61388896D01*
X22024953Y-61382902D01*
X21982430Y-61378269D01*
X21977617Y-61377885D01*
X21958039Y-61376328D01*
X21937606Y-61368921D01*
X21902347Y-61348694D01*
X21860721Y-61320211D01*
X21820414Y-61288258D01*
X21792047Y-61257421D01*
X21770192Y-61219165D01*
X21747861Y-61163807D01*
X21744304Y-61154155D01*
X21727082Y-61105590D01*
X21714877Y-61068111D01*
X21710140Y-61049163D01*
X21710110Y-61047453D01*
X21714103Y-61007455D01*
X21919216Y-61007455D01*
X21925294Y-61038037D01*
X21938781Y-61079500D01*
X21955046Y-61118102D01*
X21969548Y-61141732D01*
X21977617Y-61145400D01*
X21983170Y-61133448D01*
X21986011Y-61101229D01*
X21986809Y-61044992D01*
X21986704Y-61026854D01*
X21986434Y-61017882D01*
X22070639Y-61017882D01*
X22070662Y-61040166D01*
X22071643Y-61106516D01*
X22073810Y-61160115D01*
X22076901Y-61195945D01*
X22080651Y-61208991D01*
X22082954Y-61208614D01*
X22104407Y-61199292D01*
X22136261Y-61181390D01*
X22181445Y-61153841D01*
X22180850Y-60829543D01*
X22292665Y-60829543D01*
X22292982Y-60907895D01*
X22293898Y-60978379D01*
X22295305Y-61034112D01*
X22297091Y-61070742D01*
X22299145Y-61083919D01*
X22301309Y-61083482D01*
X22321889Y-61075447D01*
X22354755Y-61060491D01*
X22403886Y-61037062D01*
X22403886Y-60973264D01*
X22501204Y-60973264D01*
X22556814Y-60944894D01*
X22612424Y-60916523D01*
X22612354Y-60848141D01*
X22723645Y-60848141D01*
X22779255Y-60819770D01*
X22834866Y-60791400D01*
X22834866Y-60308851D01*
X22932221Y-60308851D01*
X22932223Y-60318641D01*
X22932696Y-60430843D01*
X22933938Y-60528664D01*
X22935869Y-60609420D01*
X22938404Y-60670426D01*
X22941462Y-60708998D01*
X22944960Y-60722452D01*
X22946447Y-60722331D01*
X22968410Y-60714477D01*
X23000482Y-60698123D01*
X23043228Y-60673793D01*
X23043159Y-60612062D01*
X23154625Y-60612062D01*
X23265631Y-60548670D01*
X23265738Y-60041881D01*
X23265757Y-59953681D01*
X23363163Y-59953681D01*
X23363172Y-59976824D01*
X23363475Y-60093895D01*
X23364177Y-60201206D01*
X23365230Y-60295751D01*
X23366583Y-60374521D01*
X23368187Y-60434509D01*
X23369992Y-60472707D01*
X23371949Y-60486109D01*
X23374575Y-60485549D01*
X23395700Y-60475607D01*
X23427560Y-60457170D01*
X23474384Y-60428231D01*
X23474384Y-59794456D01*
X23585605Y-59794456D01*
X23585649Y-59846455D01*
X23586093Y-59965467D01*
X23586973Y-60074167D01*
X23588236Y-60169638D01*
X23589826Y-60248965D01*
X23591691Y-60309234D01*
X23593778Y-60347529D01*
X23596031Y-60360934D01*
X23598335Y-60360557D01*
X23619787Y-60351235D01*
X23651642Y-60333333D01*
X23696825Y-60305784D01*
X23696825Y-60250330D01*
X23794143Y-60250330D01*
X23849753Y-60221960D01*
X23905364Y-60193590D01*
X23905364Y-60134729D01*
X24009633Y-60134729D01*
X24127805Y-60037877D01*
X24127805Y-59427838D01*
X24127764Y-59347266D01*
X24225123Y-59347266D01*
X24225207Y-59437150D01*
X24225600Y-59558432D01*
X24226284Y-59668762D01*
X24227222Y-59765330D01*
X24228380Y-59845327D01*
X24229722Y-59905946D01*
X24231213Y-59944377D01*
X24232817Y-59957811D01*
X24236722Y-59956365D01*
X24257735Y-59942798D01*
X24288427Y-59919579D01*
X24336343Y-59881347D01*
X24336343Y-59183432D01*
X24433661Y-59183432D01*
X24433758Y-59308351D01*
X24434175Y-59438212D01*
X24434973Y-59543899D01*
X24436212Y-59627412D01*
X24437949Y-59690753D01*
X24440242Y-59735921D01*
X24443149Y-59764918D01*
X24446729Y-59779744D01*
X24451040Y-59782401D01*
X24455196Y-59779450D01*
X24478780Y-59761868D01*
X24520862Y-59730155D01*
X24579067Y-59686119D01*
X24651019Y-59631568D01*
X24734344Y-59568311D01*
X24826667Y-59498156D01*
X24925612Y-59422913D01*
X25028805Y-59344389D01*
X25133870Y-59264393D01*
X25238432Y-59184735D01*
X25340116Y-59107222D01*
X25436548Y-59033663D01*
X25525352Y-58965867D01*
X25604152Y-58905643D01*
X25670575Y-58854798D01*
X25722245Y-58815142D01*
X25756786Y-58788483D01*
X25771825Y-58776629D01*
X25772743Y-58761637D01*
X25764781Y-58728061D01*
X25749427Y-58683808D01*
X25742746Y-58666685D01*
X25728601Y-58627104D01*
X25724094Y-58601064D01*
X25728689Y-58579280D01*
X25741853Y-58552470D01*
X25753235Y-58529799D01*
X25765253Y-58491281D01*
X25759023Y-58459786D01*
X25733914Y-58425208D01*
X25730932Y-58421853D01*
X25706616Y-58399770D01*
X25680443Y-58392290D01*
X25639842Y-58395433D01*
X25618355Y-58398156D01*
X25593243Y-58397996D01*
X25573228Y-58388509D01*
X25551033Y-58365403D01*
X25519378Y-58324386D01*
X25459471Y-58245040D01*
X25483800Y-58191088D01*
X25492717Y-58170845D01*
X25500694Y-58143314D01*
X25495139Y-58120350D01*
X25474863Y-58088291D01*
X25461950Y-58070128D01*
X25437625Y-58046011D01*
X25410981Y-58041574D01*
X25371679Y-58053313D01*
X25367726Y-58054749D01*
X25340914Y-58059226D01*
X25310478Y-58051820D01*
X25266874Y-58030450D01*
X25241077Y-58017262D01*
X25203154Y-58003858D01*
X25181294Y-58007326D01*
X25154913Y-58027795D01*
X25091440Y-58076840D01*
X25018620Y-58132893D01*
X24939592Y-58193560D01*
X24857494Y-58256443D01*
X24775465Y-58319148D01*
X24696645Y-58379279D01*
X24624172Y-58434439D01*
X24561186Y-58482234D01*
X24510824Y-58520266D01*
X24476227Y-58546140D01*
X24460532Y-58557461D01*
X24460284Y-58557617D01*
X24453882Y-58562646D01*
X24448597Y-58570578D01*
X24444322Y-58583901D01*
X24440950Y-58605106D01*
X24438375Y-58636683D01*
X24436489Y-58681124D01*
X24435186Y-58740917D01*
X24434359Y-58818555D01*
X24433900Y-58916526D01*
X24433703Y-59037321D01*
X24433661Y-59183432D01*
X24336343Y-59183432D01*
X24336343Y-58648633D01*
X24225123Y-58736721D01*
X24225123Y-59347266D01*
X24127764Y-59347266D01*
X24127759Y-59338396D01*
X24127542Y-59217138D01*
X24127165Y-59106826D01*
X24126646Y-59010269D01*
X24126006Y-58930279D01*
X24125265Y-58869664D01*
X24124441Y-58831234D01*
X24123555Y-58817800D01*
X24120817Y-58819008D01*
X24101649Y-58831484D01*
X24071420Y-58853119D01*
X24023536Y-58888438D01*
X24016584Y-59511583D01*
X24009633Y-60134729D01*
X23905364Y-60134729D01*
X23905364Y-59587408D01*
X23905390Y-59514866D01*
X23905509Y-59379627D01*
X23905452Y-59269033D01*
X23904902Y-59180933D01*
X23903542Y-59113178D01*
X23901054Y-59063616D01*
X23897121Y-59030097D01*
X23891427Y-59010472D01*
X23883653Y-59002589D01*
X23873483Y-59004299D01*
X23860600Y-59013451D01*
X23844686Y-59027895D01*
X23825424Y-59045480D01*
X23794143Y-59072893D01*
X23794143Y-60250330D01*
X23696825Y-60250330D01*
X23696825Y-59728623D01*
X23696782Y-59667545D01*
X23696437Y-59547957D01*
X23695778Y-59438842D01*
X23694844Y-59343089D01*
X23693674Y-59263585D01*
X23692307Y-59203220D01*
X23690779Y-59164883D01*
X23689131Y-59151462D01*
X23685226Y-59152908D01*
X23664213Y-59166475D01*
X23633521Y-59189694D01*
X23585605Y-59227926D01*
X23585605Y-59794456D01*
X23474384Y-59794456D01*
X23474384Y-59312650D01*
X23418774Y-59366952D01*
X23363163Y-59421254D01*
X23363163Y-59953681D01*
X23265757Y-59953681D01*
X23265845Y-59535091D01*
X23154625Y-59643695D01*
X23154625Y-60612062D01*
X23043159Y-60612062D01*
X23042724Y-60221960D01*
X23042219Y-59770126D01*
X22987239Y-59832688D01*
X22932259Y-59895249D01*
X22932221Y-60308851D01*
X22834866Y-60308851D01*
X22834866Y-59995943D01*
X22779826Y-60056817D01*
X22724785Y-60117691D01*
X22723645Y-60848141D01*
X22612354Y-60848141D01*
X22612077Y-60579669D01*
X22611729Y-60242814D01*
X22556467Y-60301361D01*
X22501204Y-60359909D01*
X22501204Y-60973264D01*
X22403886Y-60973264D01*
X22403886Y-60466563D01*
X22348276Y-60520865D01*
X22292665Y-60575167D01*
X22292665Y-60829543D01*
X22180850Y-60829543D01*
X22180615Y-60701599D01*
X22125834Y-60764160D01*
X22071054Y-60826722D01*
X22070639Y-61017882D01*
X21986434Y-61017882D01*
X21985230Y-60977929D01*
X21982376Y-60943809D01*
X21978610Y-60930991D01*
X21965526Y-60939842D01*
X21944316Y-60962272D01*
X21926642Y-60987621D01*
X21919216Y-61007455D01*
X21714103Y-61007455D01*
X21714381Y-61004665D01*
X21725956Y-60949733D01*
X21742059Y-60892581D01*
X21759911Y-60843128D01*
X21776735Y-60811298D01*
X21794427Y-60790480D01*
X21831091Y-60749829D01*
X21883526Y-60693025D01*
X21949805Y-60622077D01*
X22028002Y-60538995D01*
X22116192Y-60445786D01*
X22212450Y-60344460D01*
X22314849Y-60237025D01*
X22421465Y-60125489D01*
X22530372Y-60011863D01*
X22639643Y-59898154D01*
X22747354Y-59786371D01*
X22851579Y-59678523D01*
X22950392Y-59576618D01*
X23041868Y-59482666D01*
X23124081Y-59398675D01*
X23195106Y-59326653D01*
X23253016Y-59268610D01*
X23295887Y-59226554D01*
X23319432Y-59205570D01*
X23363624Y-59168204D01*
X23425861Y-59116670D01*
X23504209Y-59052533D01*
X23596734Y-58977362D01*
X23701499Y-58892724D01*
X23816570Y-58800185D01*
X23940012Y-58701314D01*
X24069890Y-58597676D01*
X24204269Y-58490839D01*
X24213523Y-58483495D01*
X24344989Y-58379159D01*
X24470057Y-58279889D01*
X24587016Y-58187041D01*
X24694158Y-58101972D01*
X24789773Y-58026042D01*
X24872153Y-57960606D01*
X24939588Y-57907022D01*
X24990368Y-57866649D01*
X25022785Y-57840842D01*
X25035130Y-57830961D01*
X25035597Y-57828845D01*
X25029951Y-57806913D01*
X25014654Y-57764798D01*
X24991231Y-57706347D01*
X24961206Y-57635406D01*
X24926102Y-57555822D01*
X24806466Y-57289633D01*
X24843668Y-57244411D01*
X25310292Y-57244411D01*
X25320163Y-57282827D01*
X25324023Y-57285324D01*
X25351144Y-57292121D01*
X25399734Y-57299364D01*
X25465310Y-57306453D01*
X25543386Y-57312785D01*
X25584282Y-57315715D01*
X25653091Y-57321086D01*
X25708838Y-57326014D01*
X25746627Y-57330050D01*
X25761563Y-57332747D01*
X25761760Y-57333106D01*
X25762052Y-57350628D01*
X25759673Y-57389793D01*
X25755019Y-57445169D01*
X25748489Y-57511328D01*
X25747814Y-57517805D01*
X25741734Y-57583706D01*
X25738016Y-57638784D01*
X25736957Y-57677442D01*
X25738851Y-57694082D01*
X25745950Y-57698220D01*
X25775414Y-57711779D01*
X25823281Y-57732297D01*
X25884994Y-57757835D01*
X25955993Y-57786453D01*
X26164532Y-57869482D01*
X26347042Y-57862073D01*
X26529553Y-57854665D01*
X26569161Y-57682006D01*
X26570912Y-57674395D01*
X26586399Y-57608851D01*
X26600151Y-57553617D01*
X26610730Y-57514303D01*
X26616698Y-57496518D01*
X26629960Y-57496309D01*
X26665600Y-57503804D01*
X26719184Y-57518163D01*
X26786398Y-57538222D01*
X26862927Y-57562822D01*
X26878157Y-57567878D01*
X26959056Y-57594537D01*
X27018254Y-57613279D01*
X27059767Y-57624915D01*
X27087608Y-57630255D01*
X27105790Y-57630110D01*
X27118329Y-57625290D01*
X27129237Y-57616606D01*
X27131360Y-57614642D01*
X27149735Y-57586220D01*
X27148958Y-57547632D01*
X27148565Y-57545571D01*
X27142312Y-57515224D01*
X27138526Y-57501025D01*
X27134252Y-57499581D01*
X27107365Y-57492009D01*
X27058547Y-57478783D01*
X26991014Y-57460759D01*
X26907981Y-57438794D01*
X26812664Y-57413743D01*
X26708279Y-57386463D01*
X26592716Y-57356500D01*
X26488798Y-57330184D01*
X26400044Y-57308836D01*
X26320401Y-57291281D01*
X26243815Y-57276344D01*
X26164234Y-57262850D01*
X26075604Y-57249623D01*
X25971872Y-57235489D01*
X25846984Y-57219273D01*
X25797470Y-57212906D01*
X25692181Y-57199292D01*
X25596110Y-57186771D01*
X25512930Y-57175827D01*
X25446313Y-57166945D01*
X25399933Y-57160609D01*
X25377461Y-57157305D01*
X25372142Y-57156479D01*
X25343838Y-57160267D01*
X25325326Y-57185629D01*
X25321677Y-57194124D01*
X25310292Y-57244411D01*
X24843668Y-57244411D01*
X24886265Y-57192632D01*
X24899350Y-57176847D01*
X24936847Y-57134327D01*
X24965894Y-57108220D01*
X24992607Y-57093774D01*
X25023098Y-57086236D01*
X25059264Y-57076477D01*
X25112039Y-57055792D01*
X25164877Y-57029753D01*
X25249623Y-56982667D01*
X25780030Y-57037863D01*
X26310437Y-57093060D01*
X26843994Y-57248091D01*
X27377552Y-57403123D01*
X27391263Y-57502224D01*
X27394048Y-57522809D01*
X27398654Y-57569433D01*
X27396614Y-57603430D01*
X27386358Y-57635861D01*
X27366313Y-57677789D01*
X27364291Y-57681685D01*
X27333078Y-57730835D01*
X27290293Y-57785937D01*
X27244573Y-57835785D01*
X27161494Y-57917316D01*
X27033565Y-57907191D01*
X26905637Y-57897066D01*
X26914512Y-57837884D01*
X26923387Y-57778701D01*
X26861038Y-57763002D01*
X26842613Y-57758506D01*
X26805901Y-57750481D01*
X26785108Y-57747302D01*
X26778482Y-57750328D01*
X26763778Y-57773382D01*
X26749628Y-57812652D01*
X26738099Y-57860374D01*
X26731255Y-57908785D01*
X26731160Y-57950122D01*
X26732466Y-57962539D01*
X26732533Y-57997460D01*
X26720774Y-58021022D01*
X26692013Y-58045887D01*
X26684436Y-58051603D01*
X26668247Y-58062354D01*
X26650344Y-58070096D01*
X26626380Y-58075324D01*
X26592004Y-58078532D01*
X26542869Y-58080212D01*
X26474626Y-58080858D01*
X26382926Y-58080964D01*
X26119827Y-58080964D01*
X25830043Y-57978218D01*
X25755481Y-57951696D01*
X25678269Y-57923708D01*
X25620784Y-57901715D01*
X25579321Y-57883936D01*
X25550176Y-57868591D01*
X25529644Y-57853898D01*
X25514020Y-57838076D01*
X25499599Y-57819345D01*
X25458940Y-57763217D01*
X25486941Y-57717027D01*
X25498075Y-57690468D01*
X25509576Y-57647724D01*
X25519606Y-57597091D01*
X25527153Y-57545553D01*
X25531209Y-57500095D01*
X25530762Y-57467699D01*
X25524803Y-57455348D01*
X25524034Y-57455306D01*
X25504131Y-57452591D01*
X25463057Y-57446260D01*
X25406315Y-57437177D01*
X25339407Y-57426206D01*
X25276999Y-57415321D01*
X25213344Y-57401662D01*
X25170576Y-57387599D01*
X25144793Y-57371243D01*
X25132094Y-57350704D01*
X25128577Y-57324092D01*
X25122032Y-57284279D01*
X25102372Y-57268576D01*
X25068444Y-57276135D01*
X25055909Y-57282024D01*
X25035849Y-57296093D01*
X25036306Y-57313886D01*
X25055564Y-57344510D01*
X25070865Y-57375008D01*
X25075321Y-57404526D01*
X25079174Y-57425444D01*
X25095559Y-57462447D01*
X25120884Y-57505320D01*
X25151712Y-57547607D01*
X25178889Y-57572931D01*
X25203666Y-57580471D01*
X25216796Y-57585334D01*
X25248593Y-57610085D01*
X25293035Y-57653586D01*
X25348204Y-57713361D01*
X25412180Y-57786935D01*
X25483045Y-57871832D01*
X25558880Y-57965579D01*
X25637766Y-58065699D01*
X25717785Y-58169718D01*
X25797016Y-58275160D01*
X25873542Y-58379551D01*
X25945444Y-58480415D01*
X26010802Y-58575277D01*
X26067699Y-58661663D01*
X26114214Y-58737096D01*
X26148430Y-58799103D01*
X26184517Y-58870772D01*
X26125866Y-58918258D01*
X26086270Y-58949725D01*
X26055068Y-58970243D01*
X26030981Y-58976362D01*
X26006363Y-58969786D01*
X25973566Y-58952222D01*
X25914285Y-58918413D01*
X25024521Y-59600155D01*
X24451040Y-60039559D01*
X24232817Y-60206762D01*
X24134756Y-60281896D01*
X24009633Y-60353085D01*
G37*
X24009633Y-60353085D02*
X23794143Y-60475686D01*
X23596031Y-60588400D01*
X23371949Y-60715889D01*
X23154625Y-60839533D01*
X23151251Y-60841452D01*
X22944960Y-60958821D01*
X22723645Y-61084736D01*
X22501204Y-61211292D01*
X22299145Y-61326251D01*
X22167747Y-61401008D01*
X22080651Y-61389779D01*
X22073802Y-61388896D01*
X22024953Y-61382902D01*
X21982430Y-61378269D01*
X21977617Y-61377885D01*
X21958039Y-61376328D01*
X21937606Y-61368921D01*
X21902347Y-61348694D01*
X21860721Y-61320211D01*
X21820414Y-61288258D01*
X21792047Y-61257421D01*
X21770192Y-61219165D01*
X21747861Y-61163807D01*
X21744304Y-61154155D01*
X21727082Y-61105590D01*
X21714877Y-61068111D01*
X21710140Y-61049163D01*
X21710110Y-61047453D01*
X21714103Y-61007455D01*
X21919216Y-61007455D01*
X21925294Y-61038037D01*
X21938781Y-61079500D01*
X21955046Y-61118102D01*
X21969548Y-61141732D01*
X21977617Y-61145400D01*
X21983170Y-61133448D01*
X21986011Y-61101229D01*
X21986809Y-61044992D01*
X21986704Y-61026854D01*
X21986434Y-61017882D01*
X22070639Y-61017882D01*
X22070662Y-61040166D01*
X22071643Y-61106516D01*
X22073810Y-61160115D01*
X22076901Y-61195945D01*
X22080651Y-61208991D01*
X22082954Y-61208614D01*
X22104407Y-61199292D01*
X22136261Y-61181390D01*
X22181445Y-61153841D01*
X22180850Y-60829543D01*
X22292665Y-60829543D01*
X22292982Y-60907895D01*
X22293898Y-60978379D01*
X22295305Y-61034112D01*
X22297091Y-61070742D01*
X22299145Y-61083919D01*
X22301309Y-61083482D01*
X22321889Y-61075447D01*
X22354755Y-61060491D01*
X22403886Y-61037062D01*
X22403886Y-60973264D01*
X22501204Y-60973264D01*
X22556814Y-60944894D01*
X22612424Y-60916523D01*
X22612354Y-60848141D01*
X22723645Y-60848141D01*
X22779255Y-60819770D01*
X22834866Y-60791400D01*
X22834866Y-60308851D01*
X22932221Y-60308851D01*
X22932223Y-60318641D01*
X22932696Y-60430843D01*
X22933938Y-60528664D01*
X22935869Y-60609420D01*
X22938404Y-60670426D01*
X22941462Y-60708998D01*
X22944960Y-60722452D01*
X22946447Y-60722331D01*
X22968410Y-60714477D01*
X23000482Y-60698123D01*
X23043228Y-60673793D01*
X23043159Y-60612062D01*
X23154625Y-60612062D01*
X23265631Y-60548670D01*
X23265738Y-60041881D01*
X23265757Y-59953681D01*
X23363163Y-59953681D01*
X23363172Y-59976824D01*
X23363475Y-60093895D01*
X23364177Y-60201206D01*
X23365230Y-60295751D01*
X23366583Y-60374521D01*
X23368187Y-60434509D01*
X23369992Y-60472707D01*
X23371949Y-60486109D01*
X23374575Y-60485549D01*
X23395700Y-60475607D01*
X23427560Y-60457170D01*
X23474384Y-60428231D01*
X23474384Y-59794456D01*
X23585605Y-59794456D01*
X23585649Y-59846455D01*
X23586093Y-59965467D01*
X23586973Y-60074167D01*
X23588236Y-60169638D01*
X23589826Y-60248965D01*
X23591691Y-60309234D01*
X23593778Y-60347529D01*
X23596031Y-60360934D01*
X23598335Y-60360557D01*
X23619787Y-60351235D01*
X23651642Y-60333333D01*
X23696825Y-60305784D01*
X23696825Y-60250330D01*
X23794143Y-60250330D01*
X23849753Y-60221960D01*
X23905364Y-60193590D01*
X23905364Y-60134729D01*
X24009633Y-60134729D01*
X24127805Y-60037877D01*
X24127805Y-59427838D01*
X24127764Y-59347266D01*
X24225123Y-59347266D01*
X24225207Y-59437150D01*
X24225600Y-59558432D01*
X24226284Y-59668762D01*
X24227222Y-59765330D01*
X24228380Y-59845327D01*
X24229722Y-59905946D01*
X24231213Y-59944377D01*
X24232817Y-59957811D01*
X24236722Y-59956365D01*
X24257735Y-59942798D01*
X24288427Y-59919579D01*
X24336343Y-59881347D01*
X24336343Y-59183432D01*
X24433661Y-59183432D01*
X24433758Y-59308351D01*
X24434175Y-59438212D01*
X24434973Y-59543899D01*
X24436212Y-59627412D01*
X24437949Y-59690753D01*
X24440242Y-59735921D01*
X24443149Y-59764918D01*
X24446729Y-59779744D01*
X24451040Y-59782401D01*
X24455196Y-59779450D01*
X24478780Y-59761868D01*
X24520862Y-59730155D01*
X24579067Y-59686119D01*
X24651019Y-59631568D01*
X24734344Y-59568311D01*
X24826667Y-59498156D01*
X24925612Y-59422913D01*
X25028805Y-59344389D01*
X25133870Y-59264393D01*
X25238432Y-59184735D01*
X25340116Y-59107222D01*
X25436548Y-59033663D01*
X25525352Y-58965867D01*
X25604152Y-58905643D01*
X25670575Y-58854798D01*
X25722245Y-58815142D01*
X25756786Y-58788483D01*
X25771825Y-58776629D01*
X25772743Y-58761637D01*
X25764781Y-58728061D01*
X25749427Y-58683808D01*
X25742746Y-58666685D01*
X25728601Y-58627104D01*
X25724094Y-58601064D01*
X25728689Y-58579280D01*
X25741853Y-58552470D01*
X25753235Y-58529799D01*
X25765253Y-58491281D01*
X25759023Y-58459786D01*
X25733914Y-58425208D01*
X25730932Y-58421853D01*
X25706616Y-58399770D01*
X25680443Y-58392290D01*
X25639842Y-58395433D01*
X25618355Y-58398156D01*
X25593243Y-58397996D01*
X25573228Y-58388509D01*
X25551033Y-58365403D01*
X25519378Y-58324386D01*
X25459471Y-58245040D01*
X25483800Y-58191088D01*
X25492717Y-58170845D01*
X25500694Y-58143314D01*
X25495139Y-58120350D01*
X25474863Y-58088291D01*
X25461950Y-58070128D01*
X25437625Y-58046011D01*
X25410981Y-58041574D01*
X25371679Y-58053313D01*
X25367726Y-58054749D01*
X25340914Y-58059226D01*
X25310478Y-58051820D01*
X25266874Y-58030450D01*
X25241077Y-58017262D01*
X25203154Y-58003858D01*
X25181294Y-58007326D01*
X25154913Y-58027795D01*
X25091440Y-58076840D01*
X25018620Y-58132893D01*
X24939592Y-58193560D01*
X24857494Y-58256443D01*
X24775465Y-58319148D01*
X24696645Y-58379279D01*
X24624172Y-58434439D01*
X24561186Y-58482234D01*
X24510824Y-58520266D01*
X24476227Y-58546140D01*
X24460532Y-58557461D01*
X24460284Y-58557617D01*
X24453882Y-58562646D01*
X24448597Y-58570578D01*
X24444322Y-58583901D01*
X24440950Y-58605106D01*
X24438375Y-58636683D01*
X24436489Y-58681124D01*
X24435186Y-58740917D01*
X24434359Y-58818555D01*
X24433900Y-58916526D01*
X24433703Y-59037321D01*
X24433661Y-59183432D01*
X24336343Y-59183432D01*
X24336343Y-58648633D01*
X24225123Y-58736721D01*
X24225123Y-59347266D01*
X24127764Y-59347266D01*
X24127759Y-59338396D01*
X24127542Y-59217138D01*
X24127165Y-59106826D01*
X24126646Y-59010269D01*
X24126006Y-58930279D01*
X24125265Y-58869664D01*
X24124441Y-58831234D01*
X24123555Y-58817800D01*
X24120817Y-58819008D01*
X24101649Y-58831484D01*
X24071420Y-58853119D01*
X24023536Y-58888438D01*
X24016584Y-59511583D01*
X24009633Y-60134729D01*
X23905364Y-60134729D01*
X23905364Y-59587408D01*
X23905390Y-59514866D01*
X23905509Y-59379627D01*
X23905452Y-59269033D01*
X23904902Y-59180933D01*
X23903542Y-59113178D01*
X23901054Y-59063616D01*
X23897121Y-59030097D01*
X23891427Y-59010472D01*
X23883653Y-59002589D01*
X23873483Y-59004299D01*
X23860600Y-59013451D01*
X23844686Y-59027895D01*
X23825424Y-59045480D01*
X23794143Y-59072893D01*
X23794143Y-60250330D01*
X23696825Y-60250330D01*
X23696825Y-59728623D01*
X23696782Y-59667545D01*
X23696437Y-59547957D01*
X23695778Y-59438842D01*
X23694844Y-59343089D01*
X23693674Y-59263585D01*
X23692307Y-59203220D01*
X23690779Y-59164883D01*
X23689131Y-59151462D01*
X23685226Y-59152908D01*
X23664213Y-59166475D01*
X23633521Y-59189694D01*
X23585605Y-59227926D01*
X23585605Y-59794456D01*
X23474384Y-59794456D01*
X23474384Y-59312650D01*
X23418774Y-59366952D01*
X23363163Y-59421254D01*
X23363163Y-59953681D01*
X23265757Y-59953681D01*
X23265845Y-59535091D01*
X23154625Y-59643695D01*
X23154625Y-60612062D01*
X23043159Y-60612062D01*
X23042724Y-60221960D01*
X23042219Y-59770126D01*
X22987239Y-59832688D01*
X22932259Y-59895249D01*
X22932221Y-60308851D01*
X22834866Y-60308851D01*
X22834866Y-59995943D01*
X22779826Y-60056817D01*
X22724785Y-60117691D01*
X22723645Y-60848141D01*
X22612354Y-60848141D01*
X22612077Y-60579669D01*
X22611729Y-60242814D01*
X22556467Y-60301361D01*
X22501204Y-60359909D01*
X22501204Y-60973264D01*
X22403886Y-60973264D01*
X22403886Y-60466563D01*
X22348276Y-60520865D01*
X22292665Y-60575167D01*
X22292665Y-60829543D01*
X22180850Y-60829543D01*
X22180615Y-60701599D01*
X22125834Y-60764160D01*
X22071054Y-60826722D01*
X22070639Y-61017882D01*
X21986434Y-61017882D01*
X21985230Y-60977929D01*
X21982376Y-60943809D01*
X21978610Y-60930991D01*
X21965526Y-60939842D01*
X21944316Y-60962272D01*
X21926642Y-60987621D01*
X21919216Y-61007455D01*
X21714103Y-61007455D01*
X21714381Y-61004665D01*
X21725956Y-60949733D01*
X21742059Y-60892581D01*
X21759911Y-60843128D01*
X21776735Y-60811298D01*
X21794427Y-60790480D01*
X21831091Y-60749829D01*
X21883526Y-60693025D01*
X21949805Y-60622077D01*
X22028002Y-60538995D01*
X22116192Y-60445786D01*
X22212450Y-60344460D01*
X22314849Y-60237025D01*
X22421465Y-60125489D01*
X22530372Y-60011863D01*
X22639643Y-59898154D01*
X22747354Y-59786371D01*
X22851579Y-59678523D01*
X22950392Y-59576618D01*
X23041868Y-59482666D01*
X23124081Y-59398675D01*
X23195106Y-59326653D01*
X23253016Y-59268610D01*
X23295887Y-59226554D01*
X23319432Y-59205570D01*
X23363624Y-59168204D01*
X23425861Y-59116670D01*
X23504209Y-59052533D01*
X23596734Y-58977362D01*
X23701499Y-58892724D01*
X23816570Y-58800185D01*
X23940012Y-58701314D01*
X24069890Y-58597676D01*
X24204269Y-58490839D01*
X24213523Y-58483495D01*
X24344989Y-58379159D01*
X24470057Y-58279889D01*
X24587016Y-58187041D01*
X24694158Y-58101972D01*
X24789773Y-58026042D01*
X24872153Y-57960606D01*
X24939588Y-57907022D01*
X24990368Y-57866649D01*
X25022785Y-57840842D01*
X25035130Y-57830961D01*
X25035597Y-57828845D01*
X25029951Y-57806913D01*
X25014654Y-57764798D01*
X24991231Y-57706347D01*
X24961206Y-57635406D01*
X24926102Y-57555822D01*
X24806466Y-57289633D01*
X24843668Y-57244411D01*
X25310292Y-57244411D01*
X25320163Y-57282827D01*
X25324023Y-57285324D01*
X25351144Y-57292121D01*
X25399734Y-57299364D01*
X25465310Y-57306453D01*
X25543386Y-57312785D01*
X25584282Y-57315715D01*
X25653091Y-57321086D01*
X25708838Y-57326014D01*
X25746627Y-57330050D01*
X25761563Y-57332747D01*
X25761760Y-57333106D01*
X25762052Y-57350628D01*
X25759673Y-57389793D01*
X25755019Y-57445169D01*
X25748489Y-57511328D01*
X25747814Y-57517805D01*
X25741734Y-57583706D01*
X25738016Y-57638784D01*
X25736957Y-57677442D01*
X25738851Y-57694082D01*
X25745950Y-57698220D01*
X25775414Y-57711779D01*
X25823281Y-57732297D01*
X25884994Y-57757835D01*
X25955993Y-57786453D01*
X26164532Y-57869482D01*
X26347042Y-57862073D01*
X26529553Y-57854665D01*
X26569161Y-57682006D01*
X26570912Y-57674395D01*
X26586399Y-57608851D01*
X26600151Y-57553617D01*
X26610730Y-57514303D01*
X26616698Y-57496518D01*
X26629960Y-57496309D01*
X26665600Y-57503804D01*
X26719184Y-57518163D01*
X26786398Y-57538222D01*
X26862927Y-57562822D01*
X26878157Y-57567878D01*
X26959056Y-57594537D01*
X27018254Y-57613279D01*
X27059767Y-57624915D01*
X27087608Y-57630255D01*
X27105790Y-57630110D01*
X27118329Y-57625290D01*
X27129237Y-57616606D01*
X27131360Y-57614642D01*
X27149735Y-57586220D01*
X27148958Y-57547632D01*
X27148565Y-57545571D01*
X27142312Y-57515224D01*
X27138526Y-57501025D01*
X27134252Y-57499581D01*
X27107365Y-57492009D01*
X27058547Y-57478783D01*
X26991014Y-57460759D01*
X26907981Y-57438794D01*
X26812664Y-57413743D01*
X26708279Y-57386463D01*
X26592716Y-57356500D01*
X26488798Y-57330184D01*
X26400044Y-57308836D01*
X26320401Y-57291281D01*
X26243815Y-57276344D01*
X26164234Y-57262850D01*
X26075604Y-57249623D01*
X25971872Y-57235489D01*
X25846984Y-57219273D01*
X25797470Y-57212906D01*
X25692181Y-57199292D01*
X25596110Y-57186771D01*
X25512930Y-57175827D01*
X25446313Y-57166945D01*
X25399933Y-57160609D01*
X25377461Y-57157305D01*
X25372142Y-57156479D01*
X25343838Y-57160267D01*
X25325326Y-57185629D01*
X25321677Y-57194124D01*
X25310292Y-57244411D01*
X24843668Y-57244411D01*
X24886265Y-57192632D01*
X24899350Y-57176847D01*
X24936847Y-57134327D01*
X24965894Y-57108220D01*
X24992607Y-57093774D01*
X25023098Y-57086236D01*
X25059264Y-57076477D01*
X25112039Y-57055792D01*
X25164877Y-57029753D01*
X25249623Y-56982667D01*
X25780030Y-57037863D01*
X26310437Y-57093060D01*
X26843994Y-57248091D01*
X27377552Y-57403123D01*
X27391263Y-57502224D01*
X27394048Y-57522809D01*
X27398654Y-57569433D01*
X27396614Y-57603430D01*
X27386358Y-57635861D01*
X27366313Y-57677789D01*
X27364291Y-57681685D01*
X27333078Y-57730835D01*
X27290293Y-57785937D01*
X27244573Y-57835785D01*
X27161494Y-57917316D01*
X27033565Y-57907191D01*
X26905637Y-57897066D01*
X26914512Y-57837884D01*
X26923387Y-57778701D01*
X26861038Y-57763002D01*
X26842613Y-57758506D01*
X26805901Y-57750481D01*
X26785108Y-57747302D01*
X26778482Y-57750328D01*
X26763778Y-57773382D01*
X26749628Y-57812652D01*
X26738099Y-57860374D01*
X26731255Y-57908785D01*
X26731160Y-57950122D01*
X26732466Y-57962539D01*
X26732533Y-57997460D01*
X26720774Y-58021022D01*
X26692013Y-58045887D01*
X26684436Y-58051603D01*
X26668247Y-58062354D01*
X26650344Y-58070096D01*
X26626380Y-58075324D01*
X26592004Y-58078532D01*
X26542869Y-58080212D01*
X26474626Y-58080858D01*
X26382926Y-58080964D01*
X26119827Y-58080964D01*
X25830043Y-57978218D01*
X25755481Y-57951696D01*
X25678269Y-57923708D01*
X25620784Y-57901715D01*
X25579321Y-57883936D01*
X25550176Y-57868591D01*
X25529644Y-57853898D01*
X25514020Y-57838076D01*
X25499599Y-57819345D01*
X25458940Y-57763217D01*
X25486941Y-57717027D01*
X25498075Y-57690468D01*
X25509576Y-57647724D01*
X25519606Y-57597091D01*
X25527153Y-57545553D01*
X25531209Y-57500095D01*
X25530762Y-57467699D01*
X25524803Y-57455348D01*
X25524034Y-57455306D01*
X25504131Y-57452591D01*
X25463057Y-57446260D01*
X25406315Y-57437177D01*
X25339407Y-57426206D01*
X25276999Y-57415321D01*
X25213344Y-57401662D01*
X25170576Y-57387599D01*
X25144793Y-57371243D01*
X25132094Y-57350704D01*
X25128577Y-57324092D01*
X25122032Y-57284279D01*
X25102372Y-57268576D01*
X25068444Y-57276135D01*
X25055909Y-57282024D01*
X25035849Y-57296093D01*
X25036306Y-57313886D01*
X25055564Y-57344510D01*
X25070865Y-57375008D01*
X25075321Y-57404526D01*
X25079174Y-57425444D01*
X25095559Y-57462447D01*
X25120884Y-57505320D01*
X25151712Y-57547607D01*
X25178889Y-57572931D01*
X25203666Y-57580471D01*
X25216796Y-57585334D01*
X25248593Y-57610085D01*
X25293035Y-57653586D01*
X25348204Y-57713361D01*
X25412180Y-57786935D01*
X25483045Y-57871832D01*
X25558880Y-57965579D01*
X25637766Y-58065699D01*
X25717785Y-58169718D01*
X25797016Y-58275160D01*
X25873542Y-58379551D01*
X25945444Y-58480415D01*
X26010802Y-58575277D01*
X26067699Y-58661663D01*
X26114214Y-58737096D01*
X26148430Y-58799103D01*
X26184517Y-58870772D01*
X26125866Y-58918258D01*
X26086270Y-58949725D01*
X26055068Y-58970243D01*
X26030981Y-58976362D01*
X26006363Y-58969786D01*
X25973566Y-58952222D01*
X25914285Y-58918413D01*
X25024521Y-59600155D01*
X24451040Y-60039559D01*
X24232817Y-60206762D01*
X24134756Y-60281896D01*
X24009633Y-60353085D01*
G36*
X26188911Y-59907215D02*
G01*
X26143693Y-59864235D01*
X26141253Y-59859897D01*
X26380022Y-59859897D01*
X26415821Y-59843586D01*
X26457552Y-59811596D01*
X26482418Y-59764689D01*
X26489548Y-59710113D01*
X26479165Y-59654628D01*
X26451491Y-59604991D01*
X26406749Y-59567962D01*
X26400187Y-59564727D01*
X26390697Y-59563595D01*
X26384772Y-59572889D01*
X26381575Y-59596955D01*
X26380271Y-59640136D01*
X26380022Y-59706777D01*
X26380022Y-59859897D01*
X26141253Y-59859897D01*
X26110082Y-59804469D01*
X26098554Y-59772321D01*
X26091167Y-59703022D01*
X26187417Y-59703022D01*
X26195204Y-59763175D01*
X26206333Y-59783513D01*
X26228958Y-59812350D01*
X26253417Y-59836479D01*
X26271224Y-59846590D01*
X26274619Y-59840297D01*
X26278790Y-59811611D01*
X26281645Y-59765028D01*
X26282704Y-59706406D01*
X26282395Y-59665336D01*
X26279678Y-59609906D01*
X26273062Y-59579683D01*
X26261232Y-59573021D01*
X26242872Y-59588276D01*
X26216666Y-59623801D01*
X26205697Y-59642126D01*
X26187417Y-59703022D01*
X26091167Y-59703022D01*
X26090131Y-59693307D01*
X26109452Y-59613785D01*
X26136670Y-59560815D01*
X26176550Y-59517133D01*
X26234045Y-59483465D01*
X26274452Y-59468445D01*
X26352976Y-59458282D01*
X26426617Y-59471656D01*
X26491184Y-59505919D01*
X26542489Y-59558424D01*
X26576344Y-59626521D01*
X26588560Y-59707565D01*
X26582647Y-59771206D01*
X26557853Y-59833727D01*
X26509862Y-59890889D01*
X26458647Y-59928139D01*
X26384527Y-59954255D01*
X26380022Y-59954337D01*
X26306225Y-59955673D01*
X26271224Y-59944564D01*
X26230015Y-59931485D01*
X26188911Y-59907215D01*
G37*
X26188911Y-59907215D02*
X26143693Y-59864235D01*
X26141253Y-59859897D01*
X26380022Y-59859897D01*
X26415821Y-59843586D01*
X26457552Y-59811596D01*
X26482418Y-59764689D01*
X26489548Y-59710113D01*
X26479165Y-59654628D01*
X26451491Y-59604991D01*
X26406749Y-59567962D01*
X26400187Y-59564727D01*
X26390697Y-59563595D01*
X26384772Y-59572889D01*
X26381575Y-59596955D01*
X26380271Y-59640136D01*
X26380022Y-59706777D01*
X26380022Y-59859897D01*
X26141253Y-59859897D01*
X26110082Y-59804469D01*
X26098554Y-59772321D01*
X26091167Y-59703022D01*
X26187417Y-59703022D01*
X26195204Y-59763175D01*
X26206333Y-59783513D01*
X26228958Y-59812350D01*
X26253417Y-59836479D01*
X26271224Y-59846590D01*
X26274619Y-59840297D01*
X26278790Y-59811611D01*
X26281645Y-59765028D01*
X26282704Y-59706406D01*
X26282395Y-59665336D01*
X26279678Y-59609906D01*
X26273062Y-59579683D01*
X26261232Y-59573021D01*
X26242872Y-59588276D01*
X26216666Y-59623801D01*
X26205697Y-59642126D01*
X26187417Y-59703022D01*
X26091167Y-59703022D01*
X26090131Y-59693307D01*
X26109452Y-59613785D01*
X26136670Y-59560815D01*
X26176550Y-59517133D01*
X26234045Y-59483465D01*
X26274452Y-59468445D01*
X26352976Y-59458282D01*
X26426617Y-59471656D01*
X26491184Y-59505919D01*
X26542489Y-59558424D01*
X26576344Y-59626521D01*
X26588560Y-59707565D01*
X26582647Y-59771206D01*
X26557853Y-59833727D01*
X26509862Y-59890889D01*
X26458647Y-59928139D01*
X26384527Y-59954255D01*
X26380022Y-59954337D01*
X26306225Y-59955673D01*
X26271224Y-59944564D01*
X26230015Y-59931485D01*
X26188911Y-59907215D01*
G36*
X26598556Y-59093902D02*
G01*
X26521528Y-59046601D01*
X26461926Y-58977684D01*
X26420042Y-58887403D01*
X26413786Y-58854973D01*
X26414345Y-58809319D01*
X26602463Y-58809319D01*
X26602817Y-58878958D01*
X26605154Y-58927824D01*
X26611379Y-58959073D01*
X26623397Y-58977860D01*
X26643112Y-58989338D01*
X26672428Y-58998663D01*
X26713683Y-59010495D01*
X26713683Y-58988022D01*
X26811001Y-58988022D01*
X26841132Y-58968017D01*
X26880711Y-58929655D01*
X26909798Y-58871066D01*
X26919497Y-58804652D01*
X26907393Y-58738765D01*
X26893171Y-58710227D01*
X26868567Y-58675206D01*
X26842656Y-58648008D01*
X26822481Y-58637067D01*
X26821896Y-58637293D01*
X26817644Y-58653505D01*
X26814182Y-58691609D01*
X26811854Y-58746369D01*
X26811001Y-58812544D01*
X26811001Y-58988022D01*
X26713683Y-58988022D01*
X26713683Y-58809878D01*
X26713598Y-58779433D01*
X26712744Y-58712332D01*
X26711120Y-58658337D01*
X26708907Y-58622347D01*
X26706286Y-58609261D01*
X26704481Y-58609521D01*
X26683826Y-58616303D01*
X26650675Y-58629406D01*
X26602463Y-58649550D01*
X26602463Y-58809319D01*
X26414345Y-58809319D01*
X26414547Y-58792808D01*
X26426517Y-58726331D01*
X26448157Y-58667571D01*
X26491990Y-58602070D01*
X26554013Y-58547833D01*
X26625138Y-58514138D01*
X26701229Y-58500158D01*
X26778155Y-58505067D01*
X26851782Y-58528038D01*
X26917976Y-58568246D01*
X26972603Y-58624863D01*
X27011531Y-58697064D01*
X27030626Y-58784022D01*
X27031694Y-58801652D01*
X27022817Y-58890965D01*
X26988556Y-58969254D01*
X26928261Y-59038140D01*
X26923055Y-59042636D01*
X26847300Y-59091729D01*
X26811001Y-59103221D01*
X26765822Y-59117524D01*
X26713683Y-59117891D01*
X26684487Y-59118095D01*
X26598556Y-59093902D01*
G37*
X26598556Y-59093902D02*
X26521528Y-59046601D01*
X26461926Y-58977684D01*
X26420042Y-58887403D01*
X26413786Y-58854973D01*
X26414345Y-58809319D01*
X26602463Y-58809319D01*
X26602817Y-58878958D01*
X26605154Y-58927824D01*
X26611379Y-58959073D01*
X26623397Y-58977860D01*
X26643112Y-58989338D01*
X26672428Y-58998663D01*
X26713683Y-59010495D01*
X26713683Y-58988022D01*
X26811001Y-58988022D01*
X26841132Y-58968017D01*
X26880711Y-58929655D01*
X26909798Y-58871066D01*
X26919497Y-58804652D01*
X26907393Y-58738765D01*
X26893171Y-58710227D01*
X26868567Y-58675206D01*
X26842656Y-58648008D01*
X26822481Y-58637067D01*
X26821896Y-58637293D01*
X26817644Y-58653505D01*
X26814182Y-58691609D01*
X26811854Y-58746369D01*
X26811001Y-58812544D01*
X26811001Y-58988022D01*
X26713683Y-58988022D01*
X26713683Y-58809878D01*
X26713598Y-58779433D01*
X26712744Y-58712332D01*
X26711120Y-58658337D01*
X26708907Y-58622347D01*
X26706286Y-58609261D01*
X26704481Y-58609521D01*
X26683826Y-58616303D01*
X26650675Y-58629406D01*
X26602463Y-58649550D01*
X26602463Y-58809319D01*
X26414345Y-58809319D01*
X26414547Y-58792808D01*
X26426517Y-58726331D01*
X26448157Y-58667571D01*
X26491990Y-58602070D01*
X26554013Y-58547833D01*
X26625138Y-58514138D01*
X26701229Y-58500158D01*
X26778155Y-58505067D01*
X26851782Y-58528038D01*
X26917976Y-58568246D01*
X26972603Y-58624863D01*
X27011531Y-58697064D01*
X27030626Y-58784022D01*
X27031694Y-58801652D01*
X27022817Y-58890965D01*
X26988556Y-58969254D01*
X26928261Y-59038140D01*
X26923055Y-59042636D01*
X26847300Y-59091729D01*
X26811001Y-59103221D01*
X26765822Y-59117524D01*
X26713683Y-59117891D01*
X26684487Y-59118095D01*
X26598556Y-59093902D01*
G36*
X26884519Y-60245430D02*
G01*
X26883048Y-60245626D01*
X26843209Y-60247833D01*
X26814913Y-60237882D01*
X26783867Y-60210867D01*
X26753813Y-60167962D01*
X26743235Y-60119673D01*
X26809169Y-60119673D01*
X26816970Y-60155538D01*
X26839332Y-60180533D01*
X26858740Y-60188903D01*
X26893097Y-60189204D01*
X26914713Y-60165353D01*
X26922222Y-60118375D01*
X26921288Y-60097449D01*
X26909899Y-60061252D01*
X26884033Y-60048180D01*
X26841764Y-60056756D01*
X26836383Y-60059239D01*
X26815712Y-60083915D01*
X26809169Y-60119673D01*
X26743235Y-60119673D01*
X26742798Y-60117678D01*
X26752030Y-60069529D01*
X26778126Y-60028609D01*
X26817703Y-60000012D01*
X26867380Y-59988832D01*
X26923774Y-60000162D01*
X26949829Y-60014278D01*
X26985272Y-60052250D01*
X27000864Y-60098693D01*
X26997594Y-60147420D01*
X26976453Y-60192243D01*
X26938431Y-60226976D01*
X26893097Y-60242494D01*
X26884519Y-60245430D01*
G37*
X26884519Y-60245430D02*
X26883048Y-60245626D01*
X26843209Y-60247833D01*
X26814913Y-60237882D01*
X26783867Y-60210867D01*
X26753813Y-60167962D01*
X26743235Y-60119673D01*
X26809169Y-60119673D01*
X26816970Y-60155538D01*
X26839332Y-60180533D01*
X26858740Y-60188903D01*
X26893097Y-60189204D01*
X26914713Y-60165353D01*
X26922222Y-60118375D01*
X26921288Y-60097449D01*
X26909899Y-60061252D01*
X26884033Y-60048180D01*
X26841764Y-60056756D01*
X26836383Y-60059239D01*
X26815712Y-60083915D01*
X26809169Y-60119673D01*
X26743235Y-60119673D01*
X26742798Y-60117678D01*
X26752030Y-60069529D01*
X26778126Y-60028609D01*
X26817703Y-60000012D01*
X26867380Y-59988832D01*
X26923774Y-60000162D01*
X26949829Y-60014278D01*
X26985272Y-60052250D01*
X27000864Y-60098693D01*
X26997594Y-60147420D01*
X26976453Y-60192243D01*
X26938431Y-60226976D01*
X26893097Y-60242494D01*
X26884519Y-60245430D01*
%TD*%
M02*
