M48
; DRILL file {KiCad 6.0.11-2627ca5db0~126~ubuntu22.04.1} date Mi 31 Jan 2024 11:50:48
; FORMAT={-:-/ absolute / inch / decimal}
; #@! TF.CreationDate,2024-01-31T11:50:48+01:00
; #@! TF.GenerationSoftware,Kicad,Pcbnew,6.0.11-2627ca5db0~126~ubuntu22.04.1
; #@! TF.FileFunction,Plated,1,2,PTH
FMAT,2
INCH
; #@! TA.AperFunction,Plated,PTH,ViaDrill
T1C0.0157
; #@! TA.AperFunction,Plated,PTH,ComponentDrill
T2C0.0197
; #@! TA.AperFunction,Plated,PTH,ComponentDrill
T3C0.0236
; #@! TA.AperFunction,Plated,PTH,ComponentDrill
T4C0.0315
; #@! TA.AperFunction,Plated,PTH,ComponentDrill
T5C0.0433
; #@! TA.AperFunction,Plated,PTH,ComponentDrill
T6C0.0472
; #@! TA.AperFunction,Plated,PTH,ComponentDrill
T7C0.0866
%
G90
G05
T1
X1.0767Y-3.8267
X1.1133Y-4.0287
X1.2087Y-4.9004
X1.3121Y-4.9633
X1.4155Y-4.86
X1.6113Y-5.2685
X1.6267Y-5.0755
X1.6409Y-4.8157
X1.7432Y-5.5755
X1.7515Y-5.3055
X1.7727Y-5.5401
X1.7806Y-1.9633
X1.7924Y-5.2555
X1.7928Y-4.9192
X1.7975Y-5.1944
X1.8141Y-4.9673
X1.8247Y-4.7405
X1.8381Y-6.0767
X1.8566Y-6.0307
X1.894Y-4.8137
X1.9038Y-5.1767
X1.9342Y-5.446
X1.9468Y-5.6598
X1.9574Y-5.8295
X1.9873Y-5.0047
X2.0011Y-5.05
X2.0082Y-5.8452
X2.0109Y-5.1385
X2.0208Y-5.3157
X2.0389Y-5.861
X2.0971Y-5.796
X2.1027Y-6.0563
X2.1034Y-5.1385
X2.1168Y-6.0944
X2.1276Y-5.1056
X2.1527Y-5.5303
X2.1712Y-4.7724
X2.1881Y-4.6464
X2.192Y-5.8452
X2.194Y-5.5421
X2.2086Y-5.9078
X2.259Y-5.2567
X2.2629Y-4.7114
X2.2731Y-5.1941
X2.2767Y-4.6444
X2.2806Y-5.9181
X2.3121Y-5.0263
X2.32Y-5.8905
X2.3279Y-5.5834
X2.3318Y-5.8275
X2.3387Y-5.3913
X2.3389Y-6.1476
X2.3425Y-5.5419
X2.3448Y-4.9874
X2.3582Y-6.1086
X2.3692Y-4.7094
X2.3731Y-6.048
X2.381Y-5.55
X2.4015Y-6.1023
X2.4164Y-2.2921
X2.4263Y-4.9909
X2.4267Y-6.3452
X2.4271Y-5.5255
X2.5011Y-4.6326
X2.5208Y-5.4004
X2.5641Y-5.0913
X2.5857Y-5.1838
X2.5897Y-5.048
X2.5956Y-6.1641
X2.6283Y-5.6708
X2.633Y-5.1671
X2.6475Y-5.2968
X2.7058Y-5.3629
X2.7255Y-6.0346
X2.7342Y-5.5767
X2.7353Y-5.5185
X2.8208Y-5.674
X3.0444Y-6.0067
X3.1948Y-3.9685
X3.4822Y-4.0247
X3.5523Y-4.7409
X3.572Y-6.7626
X3.5838Y-4.2397
X3.5853Y-3.9653
X3.6054Y-6.1641
X3.6074Y-6.0421
X3.6786Y-5.0578
X3.6861Y-3.9063
X3.7216Y-4.6484
X3.7471Y-4.4299
X3.8101Y-1.3433
X3.881Y-4.6917
X3.8889Y-4.5913
X3.8928Y-4.5441
X3.9519Y-4.6504
X3.9708Y-4.8858
X4.1212Y-1.361
X4.255Y-4.9574
X4.4499Y-4.5322
X4.4578Y-4.2212
X4.759Y-7.2724
X5.0188Y-6.55
X5.0405Y-6.9515
X5.072Y-5.983
X5.1566Y-0.7941
X5.322Y-6.046
X5.322Y-6.1484
X5.3633Y-0.7448
X5.383Y-3.9102
X5.383Y-4.5421
X5.4952Y-2.9752
X5.7097Y-0.8019
X5.9834Y-1.2192
X6.381Y-1.4004
X6.444Y-1.3354
X6.507Y-2.1011
X6.509Y-1.983
X6.5916Y-5.8
X6.8377Y-5.1129
X6.9519Y-1.2586
X6.9971Y-5.674
X7.1015Y-2.7901
X7.2097Y-1.2527
X7.2373Y-4.4141
X7.2471Y-1.6149
X7.2491Y-3.8689
X7.2531Y-3.7665
X7.3298Y-1.7704
X7.5499Y-4.3101
X7.5641Y-2.7271
X7.6743Y-2.0318
X7.7964Y-3.9279
X7.9771Y-3.3212
T3
X5.2208Y-5.2649
X5.2731Y-5.2296
T4
X2.1764Y-4.3061
X2.1764Y-4.9061
X2.2764Y-4.3061
X2.2764Y-4.9061
X2.3764Y-4.3061
X2.3764Y-4.9061
X2.4764Y-4.3061
X2.4764Y-4.9061
X2.5764Y-4.3061
X2.5764Y-4.9061
X2.6764Y-4.3061
X2.6764Y-4.9061
X2.7764Y-4.3061
X2.7764Y-4.9061
X2.8764Y-4.3061
X2.8764Y-4.9061
X2.9764Y-4.3061
X2.9764Y-4.9061
X3.0764Y-4.3061
X3.0764Y-4.9061
X3.1764Y-4.3061
X3.1764Y-4.9061
X3.2764Y-4.3061
X3.2764Y-4.9061
X3.3764Y-4.3061
X3.3764Y-4.9061
X3.4764Y-4.3061
X3.4764Y-4.9061
T5
X2.9023Y-5.642
X3.0023Y-5.642
X3.1023Y-5.642
X3.4036Y-5.6396
X3.5036Y-5.6396
X3.6036Y-5.6396
X3.9016Y-5.6366
X4.0016Y-5.6366
X4.1016Y-5.6366
X4.4064Y-5.6337
X4.5064Y-5.6337
X4.6064Y-5.6337
T6
X3.4822Y-2.9984
X3.812Y-2.1377
X4.2495Y-4.2043
X4.85Y-1.9249
X5.1171Y-4.652
X5.6943Y-2.0459
X6.2361Y-2.3908
X6.2821Y-3.6278
T7
X2.8251Y-5.3664
X3.1794Y-5.3664
X3.3264Y-5.364
X3.6807Y-5.364
X3.8244Y-5.361
X4.1787Y-5.361
X4.3292Y-5.3582
X4.6835Y-5.3582
T2
G00X1.8793Y-6.1643
M15
G01X1.8693Y-6.1857
M16
G05
G00X1.9912Y-5.958
M15
G01X1.9812Y-5.9794
M16
G05
G00X2.1997Y-6.3137
M15
G01X2.1898Y-6.3351
M16
G05
G00X2.2859Y-6.0954
M15
G01X2.2759Y-6.1168
M16
G05
T0
M30
