%TF.GenerationSoftware,KiCad,Pcbnew,6.0.11-2627ca5db0~126~ubuntu22.04.1*%
%TF.CreationDate,2024-02-02T15:47:47+01:00*%
%TF.ProjectId,CrystalSequencer,43727973-7461-46c5-9365-7175656e6365,rev?*%
%TF.SameCoordinates,Original*%
%TF.FileFunction,Soldermask,Bot*%
%TF.FilePolarity,Negative*%
%FSLAX46Y46*%
G04 Gerber Fmt 4.6, Leading zero omitted, Abs format (unit mm)*
G04 Created by KiCad (PCBNEW 6.0.11-2627ca5db0~126~ubuntu22.04.1) date 2024-02-02 15:47:47*
%MOMM*%
%LPD*%
G01*
G04 APERTURE LIST*
G04 Aperture macros list*
%AMHorizOval*
0 Thick line with rounded ends*
0 $1 width*
0 $2 $3 position (X,Y) of the first rounded end (center of the circle)*
0 $4 $5 position (X,Y) of the second rounded end (center of the circle)*
0 Add line between two ends*
20,1,$1,$2,$3,$4,$5,0*
0 Add two circle primitives to create the rounded ends*
1,1,$1,$2,$3*
1,1,$1,$4,$5*%
%AMRotRect*
0 Rectangle, with rotation*
0 The origin of the aperture is its center*
0 $1 length*
0 $2 width*
0 $3 Rotation angle, in degrees counterclockwise*
0 Add horizontal line*
21,1,$1,$2,0,0,$3*%
G04 Aperture macros list end*
%ADD10C,3.200000*%
%ADD11C,2.500000*%
%ADD12C,1.200000*%
%ADD13RotRect,3.200000X3.200000X352.500000*%
%ADD14C,1.676400*%
%ADD15C,0.990600*%
%ADD16RotRect,1.600000X1.600000X82.500000*%
%ADD17HorizOval,1.600000X0.000000X0.000000X0.000000X0.000000X0*%
%ADD18C,0.650000*%
%ADD19HorizOval,0.650000X0.126509X-0.080595X-0.126509X0.080595X0*%
%ADD20HorizOval,0.800000X-0.161190X-0.253017X0.161190X0.253017X0*%
G04 APERTURE END LIST*
D10*
%TO.C,REF\u002A\u002A*%
X167831201Y-39799230D03*
X149588799Y-31600770D03*
%TD*%
%TO.C,REF\u002A\u002A*%
X91656023Y-32652355D03*
X111321121Y-29007645D03*
%TD*%
D11*
%TO.C,X7*%
X99309688Y-102578126D03*
%TD*%
D10*
%TO.C,H2*%
X180570287Y-61571430D03*
%TD*%
D12*
%TO.C,MK1*%
X120254512Y-132507098D03*
X121686407Y-131793182D03*
%TD*%
D13*
%TO.C,RV4*%
X97491223Y-131900241D03*
X106414227Y-133074977D03*
D14*
X98520772Y-139096187D03*
X101039042Y-139427723D03*
X103557312Y-139759260D03*
%TD*%
D11*
%TO.C,X1*%
X152407281Y-94798751D03*
%TD*%
%TO.C,X8*%
X119673159Y-116728732D03*
%TD*%
%TO.C,X2*%
X155349709Y-63497121D03*
%TD*%
D13*
%TO.C,RV1*%
X68509332Y-128295946D03*
X59586328Y-127121210D03*
D14*
X60615877Y-134317156D03*
X63134147Y-134648692D03*
X65652417Y-134980229D03*
%TD*%
D15*
%TO.C,J3*%
X36810867Y-111922880D03*
X38825483Y-112188110D03*
X37155101Y-117092035D03*
%TD*%
D10*
%TO.C,H7*%
X105078884Y-59128903D03*
%TD*%
D13*
%TO.C,RV3*%
X93692811Y-131472924D03*
X84769807Y-130298188D03*
D14*
X85799356Y-137494134D03*
X88317626Y-137825670D03*
X90835896Y-138157207D03*
%TD*%
D16*
%TO.C,U4*%
X44777043Y-113380121D03*
D17*
X47295313Y-113711658D03*
X49813583Y-114043194D03*
X52331853Y-114374731D03*
X54850123Y-114706267D03*
X57368393Y-115037804D03*
X59886663Y-115369340D03*
X62404933Y-115700877D03*
X64923203Y-116032413D03*
X67441473Y-116363950D03*
X69959742Y-116695486D03*
X72478012Y-117027023D03*
X74996282Y-117358559D03*
X77514552Y-117690096D03*
X79503771Y-102580476D03*
X76985502Y-102248940D03*
X74467232Y-101917403D03*
X71948962Y-101585867D03*
X69430692Y-101254330D03*
X66912422Y-100922794D03*
X64394152Y-100591257D03*
X61875882Y-100259720D03*
X59357612Y-99928184D03*
X56839342Y-99596647D03*
X54321072Y-99265111D03*
X51802802Y-98933574D03*
X49284532Y-98602038D03*
X46766262Y-98270501D03*
%TD*%
D10*
%TO.C,H3*%
X24912693Y-132463547D03*
%TD*%
%TO.C,H6*%
X113012669Y-102271690D03*
%TD*%
D11*
%TO.C,X5*%
X95144250Y-49086616D03*
%TD*%
%TO.C,X3*%
X142848568Y-53013651D03*
%TD*%
D10*
%TO.C,H1*%
X119745632Y-186820647D03*
%TD*%
%TO.C,REF\u002A\u002A*%
X139920000Y-152370000D03*
X155787066Y-140194772D03*
%TD*%
D11*
%TO.C,X6*%
X83985256Y-69668146D03*
%TD*%
D10*
%TO.C,H5*%
X146519107Y-73665682D03*
%TD*%
%TO.C,REF\u002A\u002A*%
X113396797Y-160017191D03*
X110095845Y-179742903D03*
%TD*%
D11*
%TO.C,X4*%
X121988206Y-47167241D03*
%TD*%
D10*
%TO.C,REF\u002A\u002A*%
X54219249Y-67232960D03*
X58548041Y-47707040D03*
%TD*%
%TO.C,REF\u002A\u002A*%
X179515970Y-86073699D03*
X184184878Y-66626301D03*
%TD*%
D18*
%TO.C,J2*%
X37582011Y-138737976D03*
D19*
X43654429Y-142606533D03*
D20*
X40536491Y-149157148D03*
X43429802Y-143945541D03*
X36463389Y-139507446D03*
X32962836Y-144332197D03*
%TD*%
D13*
%TO.C,RV2*%
X81141306Y-129897897D03*
X72218302Y-128723161D03*
D14*
X73247851Y-135919107D03*
X75766121Y-136250643D03*
X78284391Y-136582180D03*
%TD*%
D10*
%TO.C,REF\u002A\u002A*%
X184968923Y-108411946D03*
X176044967Y-126310634D03*
%TD*%
%TO.C,REF\u002A\u002A*%
X32158157Y-77063427D03*
X31634619Y-97056573D03*
%TD*%
%TO.C,H4*%
X37551020Y-42111773D03*
%TD*%
M02*
