%TF.GenerationSoftware,KiCad,Pcbnew,6.0.11-2627ca5db0~126~ubuntu22.04.1*%
%TF.CreationDate,2024-02-02T15:47:47+01:00*%
%TF.ProjectId,CrystalSequencer,43727973-7461-46c5-9365-7175656e6365,rev?*%
%TF.SameCoordinates,Original*%
%TF.FileFunction,Paste,Top*%
%TF.FilePolarity,Positive*%
%FSLAX46Y46*%
G04 Gerber Fmt 4.6, Leading zero omitted, Abs format (unit mm)*
G04 Created by KiCad (PCBNEW 6.0.11-2627ca5db0~126~ubuntu22.04.1) date 2024-02-02 15:47:47*
%MOMM*%
%LPD*%
G01*
G04 APERTURE LIST*
G04 Aperture macros list*
%AMRoundRect*
0 Rectangle with rounded corners*
0 $1 Rounding radius*
0 $2 $3 $4 $5 $6 $7 $8 $9 X,Y pos of 4 corners*
0 Add a 4 corners polygon primitive as box body*
4,1,4,$2,$3,$4,$5,$6,$7,$8,$9,$2,$3,0*
0 Add four circle primitives for the rounded corners*
1,1,$1+$1,$2,$3*
1,1,$1+$1,$4,$5*
1,1,$1+$1,$6,$7*
1,1,$1+$1,$8,$9*
0 Add four rect primitives between the rounded corners*
20,1,$1+$1,$2,$3,$4,$5,0*
20,1,$1+$1,$4,$5,$6,$7,0*
20,1,$1+$1,$6,$7,$8,$9,0*
20,1,$1+$1,$8,$9,$2,$3,0*%
%AMHorizOval*
0 Thick line with rounded ends*
0 $1 width*
0 $2 $3 position (X,Y) of the first rounded end (center of the circle)*
0 $4 $5 position (X,Y) of the second rounded end (center of the circle)*
0 Add line between two ends*
20,1,$1,$2,$3,$4,$5,0*
0 Add two circle primitives to create the rounded ends*
1,1,$1,$2,$3*
1,1,$1,$4,$5*%
%AMRotRect*
0 Rectangle, with rotation*
0 The origin of the aperture is its center*
0 $1 length*
0 $2 width*
0 $3 Rotation angle, in degrees counterclockwise*
0 Add horizontal line*
21,1,$1,$2,0,0,$3*%
G04 Aperture macros list end*
%ADD10RotRect,1.600000X0.850000X63.500000*%
%ADD11RoundRect,0.250000X0.520132X0.029477X0.230365X0.467267X-0.520132X-0.029477X-0.230365X-0.467267X0*%
%ADD12RoundRect,0.150000X-0.837521X-0.041033X0.798363X-0.256401X0.837521X0.041033X-0.798363X0.256401X0*%
%ADD13RoundRect,0.250000X0.435709X0.285594X-0.034131X0.519847X-0.435709X-0.285594X0.034131X-0.519847X0*%
%ADD14RoundRect,0.250000X0.411887X-0.318991X0.480413X0.201517X-0.411887X0.318991X-0.480413X-0.201517X0*%
%ADD15RotRect,1.700000X1.000000X35.000000*%
%ADD16RoundRect,0.250000X-0.411887X0.318991X-0.480413X-0.201517X0.411887X-0.318991X0.480413X0.201517X0*%
%ADD17RoundRect,0.250000X-0.034131X-0.519847X0.435709X-0.285594X0.034131X0.519847X-0.435709X0.285594X0*%
%ADD18RotRect,1.600000X0.850000X77.500000*%
%ADD19R,1.000000X1.700000*%
%ADD20RoundRect,0.250000X0.309861X0.438305X-0.185861X0.503568X-0.309861X-0.438305X0.185861X-0.503568X0*%
%ADD21RoundRect,0.250000X0.238485X-0.463175X0.520567X-0.020395X-0.238485X0.463175X-0.520567X0.020395X0*%
%ADD22RoundRect,0.250000X0.438305X-0.309861X0.503568X0.185861X-0.438305X0.309861X-0.503568X-0.185861X0*%
%ADD23RoundRect,0.250000X-0.309861X-0.438305X0.185861X-0.503568X0.309861X0.438305X-0.185861X0.503568X0*%
%ADD24RotRect,1.700000X1.000000X33.500000*%
%ADD25RotRect,1.700000X1.000000X63.500000*%
%ADD26RoundRect,0.250000X0.011790X0.536643X-0.435678X0.313544X-0.011790X-0.536643X0.435678X-0.313544X0*%
%ADD27RoundRect,0.250000X-0.011790X-0.536643X0.435678X-0.313544X0.011790X0.536643X-0.435678X0.313544X0*%
%ADD28RotRect,1.700000X1.000000X8.500000*%
%ADD29RoundRect,0.250000X0.043082X-0.519182X0.473137X-0.218055X-0.043082X0.519182X-0.473137X0.218055X0*%
%ADD30RotRect,1.700000X1.000000X327.500000*%
%ADD31RoundRect,0.250000X-0.438305X0.309861X-0.503568X-0.185861X0.438305X-0.309861X0.503568X0.185861X0*%
%ADD32RotRect,2.200000X2.100000X57.500000*%
%ADD33RotRect,2.700000X2.100000X57.500000*%
%ADD34RotRect,2.000000X2.100000X57.500000*%
%ADD35RotRect,2.600000X2.700000X57.500000*%
%ADD36RotRect,1.600000X0.850000X10.500000*%
%ADD37RotRect,1.700000X1.000000X337.500000*%
%ADD38RotRect,1.600000X0.550000X352.500000*%
%ADD39RotRect,1.600000X0.550000X82.500000*%
%ADD40RotRect,1.700000X1.000000X8.000000*%
%ADD41RoundRect,0.250000X-0.318991X-0.411887X0.201517X-0.480413X0.318991X0.411887X-0.201517X0.480413X0*%
%ADD42RotRect,1.600000X0.850000X88.500000*%
%ADD43RotRect,1.600000X0.850000X69.000000*%
%ADD44RotRect,1.700000X1.000000X95.500000*%
%ADD45RotRect,1.600000X0.850000X80.500000*%
%ADD46RotRect,0.300000X0.700000X327.500000*%
%ADD47HorizOval,0.800000X-0.161190X-0.253017X0.161190X0.253017X0*%
%ADD48RotRect,4.500000X2.000000X352.500000*%
%ADD49RoundRect,0.250000X0.218161X0.473088X-0.304422X0.422769X-0.218161X-0.473088X0.304422X-0.422769X0*%
%ADD50RoundRect,0.250000X0.318991X0.411887X-0.201517X0.480413X-0.318991X-0.411887X0.201517X-0.480413X0*%
%ADD51RotRect,1.600000X0.850000X76.500000*%
%ADD52RoundRect,0.250000X0.315291X-0.414726X0.516200X0.070311X-0.315291X0.414726X-0.516200X-0.070311X0*%
%ADD53RoundRect,0.250000X0.197317X0.482154X-0.322573X0.409088X-0.197317X-0.482154X0.322573X-0.409088X0*%
%ADD54RotRect,1.600000X0.850000X334.500000*%
%ADD55RotRect,1.700000X1.000000X352.500000*%
%ADD56RotRect,1.600000X0.850000X38.500000*%
%ADD57RoundRect,0.250000X0.450000X-0.262500X0.450000X0.262500X-0.450000X0.262500X-0.450000X-0.262500X0*%
G04 APERTURE END LIST*
D10*
%TO.C,D2*%
X178943031Y-118537002D03*
X180509166Y-119317848D03*
X182070859Y-116185578D03*
X180504724Y-115404732D03*
%TD*%
D11*
%TO.C,R11*%
X31310420Y-39904396D03*
X30303136Y-38382554D03*
%TD*%
D12*
%TO.C,U5*%
X30867476Y-122176984D03*
X30701708Y-123436119D03*
X30535939Y-124695254D03*
X30370171Y-125954389D03*
X30204403Y-127213524D03*
X30038635Y-128472659D03*
X29872866Y-129731794D03*
X29707098Y-130990929D03*
X34614750Y-131637034D03*
X34780518Y-130377899D03*
X34946287Y-129118764D03*
X35112055Y-127859629D03*
X35277823Y-126600494D03*
X35443591Y-125341359D03*
X35609360Y-124082224D03*
X35775128Y-122823089D03*
%TD*%
D13*
%TO.C,R7*%
X193848072Y-107680104D03*
X192214816Y-106865792D03*
%TD*%
D14*
%TO.C,R18*%
X32376510Y-135275423D03*
X32614720Y-133466037D03*
%TD*%
D15*
%TO.C,SW1*%
X127912509Y-178124095D03*
X133073167Y-174510563D03*
X135252757Y-177623341D03*
X130092099Y-181236873D03*
%TD*%
D14*
%TO.C,R16*%
X38078546Y-124994520D03*
X38316756Y-123185134D03*
%TD*%
D16*
%TO.C,R2*%
X90766001Y-109780529D03*
X90527791Y-111589915D03*
%TD*%
D17*
%TO.C,R3*%
X99002945Y-118687541D03*
X100636201Y-117873229D03*
%TD*%
D18*
%TO.C,D6*%
X55150617Y-58991724D03*
X56859135Y-59370494D03*
X57616673Y-55953458D03*
X55908155Y-55574688D03*
%TD*%
D19*
%TO.C,SW15*%
X22018577Y-115003960D03*
X22018577Y-121303960D03*
X25818577Y-121303960D03*
X25818577Y-115003960D03*
%TD*%
D20*
%TO.C,C3*%
X55043861Y-91526229D03*
X53160115Y-91278229D03*
%TD*%
D21*
%TO.C,R13*%
X100069623Y-183870000D03*
X101050195Y-182330810D03*
%TD*%
D22*
%TO.C,C14*%
X41040958Y-105681109D03*
X41288958Y-103797363D03*
%TD*%
D23*
%TO.C,C10*%
X30908957Y-119192778D03*
X32792703Y-119440778D03*
%TD*%
D24*
%TO.C,SW14*%
X28322893Y-40109217D03*
X23069412Y-43586420D03*
X30420254Y-43277984D03*
X25166773Y-46755187D03*
%TD*%
D25*
%TO.C,SW10*%
X188417156Y-114309436D03*
X191228202Y-108671350D03*
X194628952Y-110366902D03*
X191817906Y-116004988D03*
%TD*%
D26*
%TO.C,C12*%
X63531559Y-119231999D03*
X61831183Y-120079775D03*
%TD*%
D14*
%TO.C,R1*%
X41578967Y-110907013D03*
X41817177Y-109097627D03*
%TD*%
D27*
%TO.C,C15*%
X84321549Y-104341021D03*
X86021925Y-103493245D03*
%TD*%
D20*
%TO.C,C6*%
X74847813Y-98002188D03*
X72964067Y-97754188D03*
%TD*%
D28*
%TO.C,SW5*%
X120619710Y-17451772D03*
X126850510Y-16520572D03*
X127412186Y-20278832D03*
X121181386Y-21210032D03*
%TD*%
D22*
%TO.C,C4*%
X37727511Y-128954830D03*
X37975511Y-127071084D03*
%TD*%
D20*
%TO.C,C5*%
X54622262Y-94728596D03*
X52738516Y-94480596D03*
%TD*%
D29*
%TO.C,R6*%
X171138419Y-144402621D03*
X172633371Y-143355845D03*
%TD*%
D20*
%TO.C,C7*%
X79210334Y-98599646D03*
X77326588Y-98351646D03*
%TD*%
D30*
%TO.C,SW8*%
X77600232Y-164669900D03*
X82913598Y-168054888D03*
X75558494Y-167874788D03*
X80871860Y-171259776D03*
%TD*%
D31*
%TO.C,C13*%
X27857643Y-124796695D03*
X27609643Y-126680441D03*
%TD*%
D32*
%TO.C,J1*%
X51635193Y-153199421D03*
X45824592Y-147244850D03*
D33*
X56632080Y-145355880D03*
D34*
X44373883Y-149522007D03*
D35*
X54786729Y-139318937D03*
%TD*%
D20*
%TO.C,C8*%
X53881883Y-132514423D03*
X51998137Y-132266423D03*
%TD*%
D24*
%TO.C,SW6*%
X38151823Y-33630673D03*
X43405304Y-30153470D03*
X45502665Y-33322237D03*
X40249184Y-36799440D03*
%TD*%
D36*
%TO.C,D5*%
X99608420Y-30297113D03*
X99927332Y-32017809D03*
X103368724Y-31379985D03*
X103049812Y-29659289D03*
%TD*%
D37*
%TO.C,SW12*%
X145776003Y-20252321D03*
X139955562Y-17841415D03*
X144321806Y-23763063D03*
X138501365Y-21352157D03*
%TD*%
D38*
%TO.C,U1*%
X42089800Y-120013499D03*
X41985379Y-120806655D03*
X41880958Y-121599811D03*
X41776537Y-122392967D03*
X41672116Y-123186123D03*
X41567695Y-123979279D03*
X41463274Y-124772434D03*
X41358853Y-125565590D03*
D39*
X42607185Y-127192448D03*
X43400341Y-127296869D03*
X44193497Y-127401290D03*
X44986653Y-127505711D03*
X45779809Y-127610132D03*
X46572965Y-127714553D03*
X47366120Y-127818974D03*
X48159276Y-127923395D03*
D38*
X49786134Y-126675063D03*
X49890555Y-125881907D03*
X49994976Y-125088751D03*
X50099397Y-124295595D03*
X50203818Y-123502439D03*
X50308239Y-122709283D03*
X50412660Y-121916128D03*
X50517081Y-121122972D03*
D39*
X49268749Y-119496114D03*
X48475593Y-119391693D03*
X47682437Y-119287272D03*
X46889281Y-119182851D03*
X46096125Y-119078430D03*
X45302969Y-118974009D03*
X44509814Y-118869588D03*
X43716658Y-118765167D03*
%TD*%
D40*
%TO.C,SW13*%
X65135535Y-26031488D03*
X71374224Y-25154697D03*
X65664392Y-29794507D03*
X71903081Y-28917716D03*
%TD*%
D41*
%TO.C,R15*%
X36963867Y-120756338D03*
X38773253Y-120994548D03*
%TD*%
D20*
%TO.C,C9*%
X54153029Y-130032694D03*
X52269283Y-129784694D03*
%TD*%
D12*
%TO.C,U2*%
X82737804Y-107820366D03*
X82572036Y-109079501D03*
X82406267Y-110338636D03*
X82240499Y-111597771D03*
X82074731Y-112856906D03*
X81908963Y-114116041D03*
X81743194Y-115375176D03*
X81577426Y-116634311D03*
X86485078Y-117280416D03*
X86650846Y-116021281D03*
X86816615Y-114762146D03*
X86982383Y-113503011D03*
X87148151Y-112243876D03*
X87313919Y-110984741D03*
X87479688Y-109725606D03*
X87645456Y-108466471D03*
%TD*%
D42*
%TO.C,D7*%
X30975878Y-88794732D03*
X32725278Y-88840542D03*
X32816898Y-85341742D03*
X31067498Y-85295932D03*
%TD*%
D43*
%TO.C,D9*%
X128841225Y-82856298D03*
X130474991Y-83483442D03*
X131729279Y-80215910D03*
X130095513Y-79588766D03*
%TD*%
D44*
%TO.C,SW11*%
X186847059Y-49469087D03*
X186243231Y-43198091D03*
X190629565Y-49104873D03*
X190025737Y-42833877D03*
%TD*%
D17*
%TO.C,R4*%
X100288147Y-121130788D03*
X101921403Y-120316476D03*
%TD*%
D12*
%TO.C,U3*%
X90081470Y-113756925D03*
X89915702Y-115016060D03*
X89749934Y-116275195D03*
X89584166Y-117534330D03*
X94491818Y-118180435D03*
X94657586Y-116921300D03*
X94823354Y-115662165D03*
X94989122Y-114403030D03*
%TD*%
D45*
%TO.C,D8*%
X110594488Y-171461630D03*
X112320488Y-171750463D03*
X112898154Y-168298464D03*
X111172154Y-168009631D03*
%TD*%
D14*
%TO.C,R17*%
X30288349Y-134986835D03*
X30526559Y-133177449D03*
%TD*%
D46*
%TO.C,J2*%
X38653512Y-138638042D03*
X39075207Y-138906692D03*
X39496903Y-139175342D03*
X39918599Y-139443991D03*
X40340294Y-139712641D03*
X40761990Y-139981291D03*
X41183686Y-140249941D03*
X41605382Y-140518591D03*
X42027077Y-140787240D03*
X42448773Y-141055890D03*
X42870469Y-141324540D03*
X43292165Y-141593190D03*
X42167907Y-142892630D03*
X41746212Y-142623981D03*
X41324516Y-142355331D03*
X40902820Y-142086681D03*
X40481124Y-141818031D03*
X40059429Y-141549381D03*
X39637733Y-141280732D03*
X39216037Y-141012082D03*
X38794342Y-140743432D03*
X38372646Y-140474782D03*
X37950950Y-140206132D03*
X37529254Y-139937483D03*
D47*
X40536491Y-149157148D03*
X43429802Y-143945541D03*
X36463389Y-139507446D03*
X32962836Y-144332197D03*
%TD*%
D48*
%TO.C,Y1*%
X39472094Y-133086323D03*
X47899376Y-134195795D03*
%TD*%
D49*
%TO.C,R8*%
X188511313Y-51694452D03*
X186694715Y-51869370D03*
%TD*%
D15*
%TO.C,SW9*%
X167019671Y-150586765D03*
X172180329Y-146973233D03*
X174359919Y-150086011D03*
X169199261Y-153699543D03*
%TD*%
D44*
%TO.C,SW3*%
X191857702Y-96637580D03*
X192461530Y-102908576D03*
X195640208Y-96273366D03*
X196244036Y-102544362D03*
%TD*%
D50*
%TO.C,R14*%
X75081778Y-95515564D03*
X73272392Y-95277354D03*
%TD*%
D31*
%TO.C,C16*%
X54414409Y-123735644D03*
X54166409Y-125619390D03*
%TD*%
D51*
%TO.C,D3*%
X180591071Y-77850685D03*
X182292718Y-78259214D03*
X183109777Y-74855919D03*
X181408130Y-74447390D03*
%TD*%
D30*
%TO.C,SW16*%
X112064221Y-186674193D03*
X106750855Y-183289205D03*
X110022483Y-189879081D03*
X104709117Y-186494093D03*
%TD*%
D52*
%TO.C,R9*%
X135699834Y-16126479D03*
X136398232Y-14440399D03*
%TD*%
D23*
%TO.C,C1*%
X88958144Y-119882602D03*
X90841890Y-120130602D03*
%TD*%
D53*
%TO.C,R10*%
X63018477Y-27748214D03*
X61211237Y-28002204D03*
%TD*%
D25*
%TO.C,SW2*%
X178543378Y-133924533D03*
X175732332Y-139562619D03*
X181944128Y-135620085D03*
X179133082Y-141258171D03*
%TD*%
D54*
%TO.C,D4*%
X157574515Y-34028251D03*
X156821121Y-35607776D03*
X159980169Y-37114565D03*
X160733563Y-35535040D03*
%TD*%
D23*
%TO.C,C2*%
X93003129Y-120493115D03*
X94886875Y-120741115D03*
%TD*%
D27*
%TO.C,C11*%
X57538164Y-119873655D03*
X59238540Y-119025879D03*
%TD*%
D19*
%TO.C,SW7*%
X21939851Y-54357196D03*
X21939851Y-60657196D03*
X25739851Y-60657196D03*
X25739851Y-54357196D03*
%TD*%
D41*
%TO.C,R5*%
X92803026Y-111565077D03*
X94612412Y-111803287D03*
%TD*%
D37*
%TO.C,SW4*%
X183562073Y-35229716D03*
X177741632Y-32818810D03*
X176287435Y-36329552D03*
X182107876Y-38740458D03*
%TD*%
D55*
%TO.C,SW17*%
X116099986Y-138154564D03*
X109853883Y-137332249D03*
X115603987Y-141922055D03*
X109357884Y-141099740D03*
%TD*%
D56*
%TO.C,D1*%
X146011650Y-146659183D03*
X147101051Y-148028748D03*
X149840180Y-145849947D03*
X148750779Y-144480382D03*
%TD*%
D57*
%TO.C,R12*%
X21370469Y-106358221D03*
X21370469Y-104533221D03*
%TD*%
M02*
