M48
; DRILL file {KiCad 6.0.11-2627ca5db0~126~ubuntu22.04.1} date Fr 02 Feb 2024 15:47:44
; FORMAT={-:-/ absolute / inch / decimal}
; #@! TF.CreationDate,2024-02-02T15:47:44+01:00
; #@! TF.GenerationSoftware,Kicad,Pcbnew,6.0.11-2627ca5db0~126~ubuntu22.04.1
; #@! TF.FileFunction,Plated,1,2,PTH
FMAT,2
INCH
; #@! TA.AperFunction,Plated,PTH,ViaDrill
T1C0.0157
; #@! TA.AperFunction,Plated,PTH,ComponentDrill
T2C0.0197
; #@! TA.AperFunction,Plated,PTH,ComponentDrill
T3C0.0236
; #@! TA.AperFunction,Plated,PTH,ComponentDrill
T4C0.0315
; #@! TA.AperFunction,Plated,PTH,ComponentDrill
T5C0.0433
; #@! TA.AperFunction,Plated,PTH,ComponentDrill
T6C0.0472
; #@! TA.AperFunction,Plated,PTH,ComponentDrill
T7C0.0866
%
G90
G05
T1
X0.8041Y-4.3318
X0.8134Y-3.2501
X0.8234Y-3.4551
X0.8985Y-4.4077
X1.0144Y-4.3187
X1.1251Y-4.3673
X1.1553Y-4.7492
X1.1957Y-4.56
X1.2438Y-4.3043
X1.246Y-5.0709
X1.2746Y-5.5802
X1.2799Y-5.0396
X1.2894Y-4.8042
X1.299Y-5.5369
X1.3366Y-4.76
X1.3496Y-4.7002
X1.3808Y-4.4267
X1.3957Y-4.4771
X1.4252Y-5.3506
X1.4358Y-4.2537
X1.4368Y-5.181
X1.4522Y-4.9674
X1.4573Y-4.6965
X1.4735Y-5.3729
X1.4949Y-4.3353
X1.5019Y-5.3925
X1.5396Y-5.5944
X1.5487Y-5.6341
X1.5551Y-4.8495
X1.5625Y-4.5368
X1.5681Y-5.3357
X1.5685Y-4.6726
X1.5703Y-4.5835
X1.609Y-2.2148
X1.6558Y-5.3969
X1.6579Y-5.0795
X1.6602Y-4.6847
X1.664Y-5.4611
X1.6884Y-4.6551
X1.6973Y-5.0966
X1.7341Y-5.4807
X1.7546Y-1.4945
X1.7619Y-5.7158
X1.7751Y-4.3305
X1.7767Y-5.4585
X1.7861Y-5.6797
X1.7967Y-5.3976
X1.799Y-4.8221
X1.8083Y-4.2078
X1.8089Y-5.6215
X1.8212Y-4.7619
X1.8232Y-5.9232
X1.8246Y-5.155
X1.8299Y-5.6791
X1.8446Y-5.1157
X1.8604Y-4.966
X1.874Y-4.282
X1.8817Y-5.1288
X1.8817Y-4.6007
X1.8964Y-4.2174
X1.9192Y-4.5663
X1.9305Y-5.1106
X1.9797Y-4.2939
X1.9995Y-4.5804
X2.0142Y-5.7657
X2.0398Y-4.9987
X2.111Y-5.2809
X2.1205Y-4.235
X2.123Y-4.698
X2.1324Y-4.7925
X2.1541Y-4.6584
X2.16Y-5.6543
X2.179Y-4.9126
X2.1815Y-4.7821
X2.2281Y-4.9858
X2.2283Y-5.2014
X2.2371Y-5.1438
X2.3015Y-5.3092
X2.4798Y-5.6682
X2.4953Y-1.9236
X2.8949Y-3.6671
X2.9042Y-6.4865
X2.9095Y-2.4829
X3.0154Y-5.8975
X3.0333Y-5.7768
X3.1485Y-4.4795
X3.1725Y-3.7604
X3.2324Y-4.8103
X3.2452Y-3.9868
X3.2825Y-3.7149
X3.3284Y-4.4099
X3.3823Y-4.1966
X3.3902Y-3.6695
X3.4369Y-1.4452
X3.4809Y-4.4737
X3.5018Y-4.3752
X3.5119Y-4.3288
X3.5445Y-4.6778
X3.5565Y-4.4419
X3.5845Y-6.6309
X3.6446Y-6.1833
X3.672Y-1.5646
X3.817Y-4.786
X3.8477Y-1.1446
X4.0145Y-7.1469
X4.0657Y-4.3898
X4.1141Y-4.0825
X4.1205Y-0.8933
X4.1537Y-1.2028
X4.2362Y-6.8287
X4.3664Y-6.4645
X4.4931Y-5.9094
X4.7194Y-6.106
X4.7327Y-6.0045
X4.9895Y-4.5214
X5.072Y-3.8949
X5.1095Y-5.4565
X5.1154Y-0.8429
X5.2191Y-5.2545
X5.2543Y-0.7759
X5.3032Y-5.1373
X5.3053Y-2.9825
X5.4656Y-0.7541
X5.6159Y-1.5653
X5.7762Y-4.5702
X5.8017Y-0.8559
X6.0185Y-1.3053
X6.0237Y-5.9263
X6.3573Y-5.2772
X6.3891Y-1.5368
X6.4225Y-2.248
X6.4399Y-2.1312
X6.4421Y-5.8543
X6.46Y-1.4806
X6.6441Y-2.6438
X6.6735Y-4.1614
X6.6767Y-2.5051
X6.6829Y-3.2934
X6.7111Y-4.5269
X6.7491Y-2.3407
X6.8447Y-4.6366
X6.922Y-3.0087
X6.9276Y-4.0975
X6.9448Y-3.9965
X6.9736Y-1.4708
X7.1681Y-4.5742
X7.2198Y-1.8626
X7.23Y-1.4986
X7.2815Y-2.0276
X7.3889Y-3.0066
X7.4624Y-4.2275
X7.5889Y-2.3317
X7.7208Y-3.6496
T3
X4.7344Y-5.2168
X4.7908Y-5.1887
T4
X1.7629Y-4.4638
X1.8412Y-3.8689
X1.862Y-4.4768
X1.9403Y-3.882
X1.9612Y-4.4899
X2.0395Y-3.895
X2.0603Y-4.5029
X2.1386Y-3.9081
X2.1595Y-4.516
X2.2378Y-3.9211
X2.2586Y-4.529
X2.3369Y-3.9342
X2.3577Y-4.5421
X2.4361Y-3.9472
X2.4569Y-4.5552
X2.5352Y-3.9603
X2.556Y-4.5682
X2.6343Y-3.9733
X2.6552Y-4.5813
X2.7335Y-3.9864
X2.7543Y-4.5943
X2.8326Y-3.9994
X2.8535Y-4.6074
X2.9318Y-4.0125
X2.9526Y-4.6204
X3.0309Y-4.0255
X3.0518Y-4.6335
X3.1301Y-4.0386
T5
X2.3865Y-5.2881
X2.4856Y-5.3011
X2.5847Y-5.3142
X2.8838Y-5.3511
X2.9829Y-5.3642
X3.0821Y-5.3773
X3.3779Y-5.4132
X3.4771Y-5.4262
X3.5762Y-5.4393
X3.8788Y-5.4762
X3.9779Y-5.4893
X4.0771Y-5.5023
T6
X3.3065Y-2.7428
X3.7458Y-1.9325
X3.9098Y-4.0385
X4.7115Y-4.5956
X4.8027Y-1.857
X5.624Y-2.0872
X6.0003Y-3.7322
X6.1161Y-2.4999
T7
X2.3459Y-5.0048
X2.6972Y-5.051
X2.8432Y-5.0678
X3.1945Y-5.1141
X3.3374Y-5.1298
X3.6887Y-5.1761
X3.8382Y-5.1929
X4.1895Y-5.2392
T2
G00X1.3041Y-5.6724
M15
G01X1.2914Y-5.6923
M16
G05
G00X1.4419Y-5.4825
M15
G01X1.4292Y-5.5024
M16
G05
G00X1.6023Y-5.8624
M15
G01X1.5896Y-5.8823
M16
G05
G00X1.7162Y-5.6572
M15
G01X1.7035Y-5.6771
M16
G05
T0
M30
