M48
; DRILL file {KiCad 6.0.11-2627ca5db0~126~ubuntu22.04.1} date Fr 02 Feb 2024 15:47:44
; FORMAT={-:-/ absolute / inch / decimal}
; #@! TF.CreationDate,2024-02-02T15:47:44+01:00
; #@! TF.GenerationSoftware,Kicad,Pcbnew,6.0.11-2627ca5db0~126~ubuntu22.04.1
; #@! TF.FileFunction,NonPlated,1,2,NPTH
FMAT,2
INCH
; #@! TA.AperFunction,NonPlated,NPTH,ComponentDrill
T1C0.0256
; #@! TA.AperFunction,NonPlated,NPTH,ComponentDrill
T2C0.0390
; #@! TA.AperFunction,NonPlated,NPTH,ComponentDrill
T3C0.1024
; #@! TA.AperFunction,NonPlated,NPTH,ComponentDrill
T4C0.1260
%
G90
G05
T1
X1.4796Y-5.4621
T2
X1.4492Y-4.4064
X1.4628Y-4.6099
X1.5286Y-4.4169
T3
X1.2455Y-3.8211
X1.2661Y-3.034
X2.1346Y-2.647
X2.305Y-1.8782
X3.6085Y-1.2855
X4.3345Y-7.0765
X4.3827Y-1.142
X4.4644Y-6.2999
X5.5087Y-5.9988
X5.8893Y-1.2441
X6.1333Y-5.5195
X6.6075Y-1.5669
X6.9309Y-4.9729
X7.0676Y-3.3887
X7.2514Y-2.6231
X7.2822Y-4.2682
T4
X0.9808Y-5.2151
X1.4784Y-1.6579
X4.137Y-2.3279
X4.4493Y-4.0264
X4.7144Y-7.3551
X5.7685Y-2.9002
X7.1091Y-2.4241
T1
G00X1.7137Y-5.6113
M15
G01X1.7237Y-5.6176
M16
G05
T0
M30
